<?xml version="1.0" encoding="UTF-8"?>
<svg width="504px" height="43px" viewBox="0 0 504 43" version="1.1" xmlns="http://www.w3.org/2000/svg" xmlns:xlink="http://www.w3.org/1999/xlink">
    <title>WAB_global</title>
    <g id="new-global-header" stroke="none" stroke-width="1" fill="none" fill-rule="evenodd">
        <g id="New-Generic-Client-Dashboard" transform="translate(-140.000000, -26.000000)">
            <g id="WAB_global" transform="translate(140.000000, 27.000000)">
                <g id="WAB-primary-w_div-Color" transform="translate(0.000000, 4.000000)">
                    <g id="Group" transform="translate(107.881384, 1.456343)" fill="#717375" fill-rule="nonzero">
                        <polygon id="Path" points="11.5947282 11.9868204 9.41021417 11.9868204 7.00164745 3.86490939 4.53706755 11.9868204 2.40856672 11.9868204 0 0.224052718 2.07248764 0.224052718 3.69686985 8.40197694 6.10543657 0.448105437 7.89785832 0.448105437 10.2504119 8.40197694 11.9308072 0.224052718 13.8912685 0.224052718"></polygon>
                        <path d="M22.5172982,8.34596376 L16.7479407,8.34596376 C16.7479407,9.01812191 16.9719934,9.63426689 17.3640857,10.0263591 C17.6441516,10.306425 18.092257,10.5304778 18.6523888,10.5304778 C19.2685338,10.5304778 19.6046129,10.4184514 19.8846787,10.1383855 C20.0527183,9.97034596 20.2207578,9.74629325 20.276771,9.41021417 L22.2372323,9.41021417 C22.1812191,9.91433278 21.84514,10.5864909 21.509061,10.9785832 C20.7808896,11.8187809 19.7166392,12.2108731 18.5963756,12.2108731 C17.4200988,12.2108731 16.5799012,11.8187809 15.907743,11.1466227 C15.0675453,10.306425 14.5634267,9.13014827 14.5634267,7.72981878 C14.5634267,6.32948929 14.9555189,5.15321252 15.7957166,4.25700165 C16.4678748,3.58484349 17.3640857,3.13673806 18.5403624,3.13673806 C19.8286656,3.13673806 20.9489292,3.64085667 21.6771005,4.70510708 C22.2932455,5.65733114 22.461285,6.60955519 22.4052718,7.72981878 C22.5172982,7.72981878 22.5172982,8.12191104 22.5172982,8.34596376 M19.9406919,5.32125206 C19.660626,5.04118616 19.2125206,4.81713344 18.6523888,4.81713344 C18.0362438,4.81713344 17.5321252,5.09719934 17.1960461,5.4892916 C16.9159802,5.88138386 16.7479407,6.27347611 16.7479407,6.83360791 L20.5008237,6.83360791 C20.4448105,6.16144975 20.276771,5.65733114 19.9406919,5.32125206" id="Shape"></path>
                        <path d="M30.4151565,11.2026359 C29.7429984,11.8747941 28.6227348,12.2108731 27.446458,12.2108731 C26.3261944,12.2108731 25.3739703,11.8747941 24.645799,11.2026359 C24.1416804,10.6985173 23.7495881,10.0263591 23.7495881,9.18616145 L25.7100494,9.18616145 C25.7100494,9.57825371 25.9341021,9.97034596 26.1581549,10.1943987 C26.4942339,10.4744646 26.8863262,10.5864909 27.446458,10.5864909 C28.1186161,10.5864909 29.1828666,10.4184514 29.1828666,9.46622735 C29.1828666,8.96210873 28.8467875,8.62602965 28.3426689,8.57001647 C27.5584843,8.45799012 26.7182867,8.40197694 25.9341021,8.2339374 C24.7578254,8.00988468 23.9736409,7.00164745 23.9736409,5.93739703 C23.9736409,5.04118616 24.3657331,4.42504119 24.8698517,3.97693575 C25.4859967,3.41680395 26.3822076,3.13673806 27.5024712,3.13673806 C28.5107084,3.13673806 29.5749588,3.47281713 30.1911038,4.14497529 C30.6392092,4.6490939 30.9752883,5.26523888 30.9752883,5.93739703 L29.014827,5.93739703 C29.014827,5.60131796 28.8467875,5.32125206 28.6787479,5.15321252 C28.4546952,4.9291598 28.0065898,4.76112026 27.5584843,4.76112026 C27.2784185,4.76112026 26.9983526,4.76112026 26.6622735,4.87314662 C26.2701812,5.04118616 25.9901153,5.32125206 25.9901153,5.7693575 C25.9901153,6.38550247 26.4942339,6.55354201 26.9983526,6.60955519 C27.7825371,6.72158155 28.0065898,6.72158155 28.8467875,6.83360791 C30.1911038,7.05766063 31.199341,7.89785832 31.199341,9.24217463 C31.1433278,10.1383855 30.8632619,10.7545305 30.4151565,11.2026359" id="Path"></path>
                        <path d="M36.1285008,12.0988468 C34.3920923,12.0988468 33.5518946,11.0906096 33.5518946,9.46622735 L33.5518946,5.09719934 L31.9835255,5.09719934 L31.9835255,3.41680395 L33.5518946,3.41680395 L33.5518946,1.17627677 L35.6243822,0.672158155 L35.6243822,3.36079077 L37.8088962,3.36079077 L37.8088962,5.04118616 L35.6243822,5.04118616 L35.6243822,9.24217463 C35.6243822,9.91433278 35.9044481,10.1943987 36.5766063,10.1943987 C37.0247117,10.1943987 37.3607908,10.1943987 37.9209226,10.1383855 L37.9209226,11.8747941 C37.3047776,11.9868204 36.7446458,12.0988468 36.1285008,12.0988468" id="Path"></path>
                        <path d="M46.7710049,8.34596376 L41.0016474,8.34596376 C41.0016474,9.01812191 41.2257002,9.63426689 41.6177924,10.0263591 C41.8978583,10.306425 42.3459638,10.5304778 42.9060956,10.5304778 C43.5222405,10.5304778 43.8583196,10.4184514 44.1383855,10.1383855 C44.306425,9.97034596 44.4744646,9.74629325 44.5304778,9.41021417 L46.490939,9.41021417 C46.4349259,9.91433278 46.0988468,10.5864909 45.7627677,10.9785832 C45.0345964,11.8187809 43.970346,12.2108731 42.8500824,12.2108731 C41.6738056,12.2108731 40.8336079,11.8187809 40.1614498,11.1466227 C39.3212521,10.306425 38.8171334,9.13014827 38.8171334,7.72981878 C38.8171334,6.32948929 39.2092257,5.15321252 40.0494234,4.25700165 C40.7215815,3.58484349 41.6177924,3.13673806 42.7940692,3.13673806 C44.0823723,3.13673806 45.2026359,3.64085667 45.9308072,4.70510708 C46.5469522,5.65733114 46.7149918,6.60955519 46.6589786,7.72981878 C46.7710049,7.72981878 46.7710049,8.12191104 46.7710049,8.34596376 M44.1943987,5.32125206 C43.9143328,5.04118616 43.4662273,4.81713344 42.9060956,4.81713344 C42.2899506,4.81713344 41.785832,5.09719934 41.4497529,5.4892916 C41.169687,5.88138386 41.0016474,6.27347611 41.0016474,6.83360791 L44.7545305,6.83360791 C44.6985173,6.16144975 44.5304778,5.65733114 44.1943987,5.32125206" id="Shape"></path>
                        <path d="M53.0444811,5.2092257 C51.5881384,5.2092257 50.8039539,6.27347611 50.8039539,7.61779242 L50.8039539,11.9308072 L48.7314662,11.9308072 L48.7314662,3.36079077 L50.4678748,3.36079077 L50.6359143,4.6490939 C51.0280066,3.64085667 52.0362438,3.24876442 53.0444811,3.24876442 C53.2685338,3.24876442 53.4925865,3.24876442 53.7166392,3.30477759 L53.7166392,5.26523888 C53.4925865,5.26523888 53.2685338,5.2092257 53.0444811,5.2092257" id="Path"></path>
                        <path d="M60.6062603,11.9868204 L60.6062603,6.72158155 C60.6062603,5.71334432 60.2701812,5.09719934 59.2059308,5.09719934 C58.4777595,5.09719934 57.9736409,5.54530478 57.693575,6.21746293 C57.4135091,6.88962109 57.4135091,7.78583196 57.4135091,8.51400329 L57.4135091,12.0428336 L55.3410214,12.0428336 L55.3410214,3.36079077 L57.07743,3.36079077 L57.2454695,4.48105437 C57.7495881,3.58484349 58.7578254,3.13673806 59.7660626,3.13673806 C61.6144975,3.13673806 62.6787479,4.42504119 62.6787479,6.21746293 L62.6787479,11.9868204 L60.6062603,11.9868204 Z" id="Path"></path>
                        <path d="M75.6738056,11.9868204 L74.8896211,9.74629325 L70.2405272,9.74629325 L69.4563427,11.9868204 L67.3278418,11.9868204 L71.4728171,0.224052718 L73.8253707,0.224052718 L77.970346,11.9868204 L75.6738056,11.9868204 Z M72.5370675,2.85667216 L70.8566722,7.78583196 L74.2174629,7.78583196 L72.5370675,2.85667216 Z" id="Shape"></path>
                        <path d="M81.4431631,12.0988468 C80.0428336,12.0988468 79.0906096,11.4266886 79.0906096,9.80230643 L79.0906096,-4.97496973e-16 L81.1630972,-4.97496973e-16 L81.1630972,9.41021417 C81.1630972,9.91433278 81.2751236,10.2504119 82.0032949,10.2504119 C82.1713344,10.2504119 82.2273476,10.2504119 82.339374,10.2504119 L82.339374,11.9868204 C81.8912685,12.0428336 81.8352554,12.0988468 81.4431631,12.0988468" id="Path"></path>
                        <path d="M86.4283361,12.0988468 C85.0280066,12.0988468 84.0757825,11.4266886 84.0757825,9.80230643 L84.0757825,-4.97496973e-16 L86.1482702,-4.97496973e-16 L86.1482702,9.41021417 C86.1482702,9.91433278 86.2602965,10.2504119 86.9884679,10.2504119 C87.1565074,10.2504119 87.2125206,10.2504119 87.324547,10.2504119 L87.324547,11.9868204 C86.9324547,12.0428336 86.8204283,12.0988468 86.4283361,12.0988468" id="Path"></path>
                        <path d="M89.0609555,0.0560131796 L91.3014827,0.0560131796 L91.3014827,2.184514 L89.0609555,2.184514 L89.0609555,0.0560131796 Z M89.1729819,3.36079077 L91.3014827,3.36079077 L91.3014827,11.9868204 L89.1729819,11.9868204 L89.1729819,3.36079077 Z" id="Shape"></path>
                        <path d="M100.319605,12.0988468 C99.4233937,12.0988468 98.9192751,11.538715 98.8632619,10.8665568 C98.4711697,11.538715 97.4629325,12.15486 96.2306425,12.15486 C94.1581549,12.15486 93.0939044,10.8665568 93.0939044,9.46622735 C93.0939044,7.84184514 94.3822076,6.88962109 96.0065898,6.77759473 L98.5271829,6.60955519 L98.5271829,6.10543657 C98.5271829,5.32125206 98.247117,4.76112026 97.0708402,4.76112026 C96.1186161,4.76112026 95.5584843,5.2092257 95.5024712,5.99341021 L93.4859967,5.99341021 C93.5980231,4.03294893 95.1663921,3.19275124 97.0708402,3.19275124 C98.5271829,3.19275124 99.815486,3.64085667 100.319605,4.9291598 C100.543657,5.4892916 100.543657,6.10543657 100.543657,6.66556837 L100.543657,9.8583196 C100.543657,10.2504119 100.655684,10.4184514 101.047776,10.4184514 C101.159802,10.4184514 101.327842,10.3624382 101.327842,10.3624382 L101.327842,11.8747941 C100.991763,12.0428336 100.823723,12.0988468 100.319605,12.0988468 M98.583196,8.17792422 L96.398682,8.34596376 C95.7825371,8.40197694 95.1663921,8.79406919 95.1663921,9.46622735 C95.1663921,10.1383855 95.7265239,10.5304778 96.398682,10.5304778 C97.6869852,10.5304778 98.583196,9.8583196 98.583196,8.57001647 L98.583196,8.17792422 Z" id="Shape"></path>
                        <path d="M108.441516,11.9868204 L108.441516,6.72158155 C108.441516,5.71334432 108.105437,5.09719934 107.041186,5.09719934 C106.313015,5.09719934 105.808896,5.54530478 105.52883,6.21746293 C105.248764,6.88962109 105.248764,7.78583196 105.248764,8.51400329 L105.248764,12.0428336 L103.176277,12.0428336 L103.176277,3.36079077 L104.912685,3.36079077 L105.080725,4.48105437 C105.584843,3.58484349 106.593081,3.13673806 107.601318,3.13673806 C109.449753,3.13673806 110.514003,4.42504119 110.514003,6.21746293 L110.514003,11.9868204 L108.441516,11.9868204 Z" id="Path"></path>
                        <path d="M119.252059,10.8105437 C118.635914,11.538715 117.627677,12.15486 116.283361,12.15486 C114.995058,12.15486 113.874794,11.538715 113.258649,10.8105437 C112.586491,10.0263591 112.306425,8.90609555 112.306425,7.6738056 C112.306425,6.44151565 112.586491,5.32125206 113.258649,4.53706755 C113.874794,3.80889621 114.939044,3.19275124 116.283361,3.19275124 C117.571664,3.19275124 118.635914,3.80889621 119.252059,4.53706755 C119.644152,5.04118616 119.868204,5.71334432 119.924217,6.38550247 L117.907743,6.38550247 C117.907743,6.04942339 117.795717,5.82537068 117.68369,5.60131796 C117.459638,5.2092257 117.011532,4.9291598 116.339374,4.9291598 C115.779242,4.9291598 115.38715,5.15321252 115.107084,5.43327842 C114.602965,5.99341021 114.546952,6.83360791 114.546952,7.61779242 C114.546952,8.40197694 114.602965,9.24217463 115.107084,9.80230643 C115.38715,10.0823723 115.779242,10.3624382 116.339374,10.3624382 C116.955519,10.3624382 117.403624,10.0823723 117.68369,9.69028007 C117.795717,9.46622735 117.907743,9.18616145 117.907743,8.90609555 L119.924217,8.90609555 C119.868204,9.63426689 119.644152,10.306425 119.252059,10.8105437" id="Path"></path>
                        <path d="M128.998353,8.34596376 L123.228995,8.34596376 C123.228995,9.01812191 123.453048,9.63426689 123.84514,10.0263591 C124.125206,10.306425 124.573311,10.5304778 125.133443,10.5304778 C125.749588,10.5304778 126.085667,10.4184514 126.365733,10.1383855 C126.533773,9.97034596 126.701812,9.74629325 126.757825,9.41021417 L128.718287,9.41021417 C128.662273,9.91433278 128.326194,10.5864909 127.990115,10.9785832 C127.261944,11.8187809 126.197694,12.2108731 125.07743,12.2108731 C123.901153,12.2108731 123.060956,11.8187809 122.388797,11.1466227 C121.5486,10.306425 121.044481,9.13014827 121.044481,7.72981878 C121.044481,6.32948929 121.436573,5.15321252 122.276771,4.25700165 C122.948929,3.58484349 123.84514,3.13673806 125.021417,3.13673806 C126.30972,3.13673806 127.429984,3.64085667 128.158155,4.70510708 C128.7743,5.65733114 128.942339,6.60955519 128.886326,7.72981878 C129.054366,7.72981878 128.998353,8.12191104 128.998353,8.34596376 M126.421746,5.32125206 C126.14168,5.04118616 125.693575,4.81713344 125.133443,4.81713344 C124.517298,4.81713344 124.01318,5.09719934 123.6771,5.4892916 C123.397035,5.88138386 123.228995,6.27347611 123.228995,6.83360791 L126.981878,6.83360791 C126.925865,6.16144975 126.757825,5.65733114 126.421746,5.32125206" id="Shape"></path>
                    </g>
                    <g id="INSERT_1_" transform="translate(0.000000, 0.616145)">
                        <g id="POLYLINE_1_" fill="#717375" fill-rule="nonzero">
                            <polyline id="Path" points="41.8418451 29.1828666 56.7413509 1.49249092e-15 68.2240527 1.49249092e-15 84.9159802 32.76771 74.7775947 32.76771 60.1581549 4.08896211 45.4827018 32.76771 33.5518946 32.76771 30.1911038 26.1021417 26.7742998 32.7116969 16.6919275 32.76771 2.98498184e-15 1.49249092e-15 10.1383855 1.49249092e-15 24.029654 27.3904448 27.446458 20.7248764 16.8599671 1.49249092e-15 26.9983526 1.49249092e-15 41.8418451 29.1828666"></polyline>
                        </g>
                        <path d="M48.9555189,32.76771 C53.5485997,20.2207578 65.199341,12.5469522 79.5947282,12.5469522 C82.8434926,12.5469522 85.9802306,13.2191104 88.892916,14.2833608 L88.892916,17.3640857 C86.092257,16.1317957 82.7314662,15.4596376 78.8105437,15.4596376 C67.4958814,15.4596376 61.6705107,23.3014827 59.1499176,32.76771 L48.9555189,32.76771 Z" id="Path" fill="#005288"></path>
                    </g>
                    <g id="Group" transform="translate(108.665568, 21.397035)" fill="#717375" fill-rule="nonzero">
                        <path d="M7.72981878,10.8665568 C7.05766063,11.5947282 5.93739703,11.9308072 4.76112026,11.9308072 L-1.59199031e-14,11.9308072 L-1.59199031e-14,0.168039539 L4.70510708,0.168039539 C5.82537068,0.168039539 6.94563427,0.560131796 7.56177924,1.23228995 C8.00988468,1.73640857 8.34596376,2.35255354 8.34596376,3.19275124 C8.34596376,4.31301483 7.72981878,5.37726524 6.66556837,5.7693575 C7.89785832,6.16144975 8.62602965,7.33772652 8.62602965,8.62602965 C8.62602965,9.57825371 8.2339374,10.306425 7.72981878,10.8665568 M4.76112026,1.51235585 L1.51235585,1.51235585 L1.51235585,5.2092257 L4.81713344,5.2092257 C6.04942339,5.2092257 6.88962109,4.6490939 6.88962109,3.36079077 C6.88962109,2.12850082 5.88138386,1.51235585 4.76112026,1.51235585 M4.81713344,6.49752883 L1.51235585,6.49752883 L1.51235585,10.5864909 L4.81713344,10.5864909 C6.10543657,10.5864909 7.16968699,9.97034596 7.16968699,8.57001647 C7.11367381,7.22570016 6.04942339,6.49752883 4.81713344,6.49752883" id="Shape"></path>
                        <path d="M17.0840198,12.0428336 C16.3558484,12.0428336 15.8517298,11.4827018 15.8517298,10.7545305 L15.7957166,10.7545305 C15.291598,11.5947282 14.2833608,12.15486 13.107084,12.15486 C11.2026359,12.15486 10.2504119,10.8665568 10.2504119,9.57825371 C10.2504119,8.51400329 10.92257,7.11367381 13.2191104,6.94563427 L15.7957166,6.77759473 L15.7957166,6.16144975 C15.7957166,5.7693575 15.7397035,5.2092257 15.3476112,4.87314662 C15.0675453,4.59308072 14.675453,4.42504119 13.9472817,4.42504119 C13.1630972,4.42504119 12.7149918,4.6490939 12.4349259,4.9291598 C12.15486,5.2092257 12.0428336,5.54530478 12.0428336,5.93739703 L10.6425041,5.93739703 C10.6425041,5.15321252 10.92257,4.6490939 11.3706755,4.20098847 C11.9308072,3.58484349 12.9390445,3.30477759 13.9472817,3.30477759 C15.5716639,3.30477759 16.523888,3.97693575 16.9159802,4.9291598 C17.0840198,5.32125206 17.1400329,5.71334432 17.1400329,6.21746293 L17.1400329,10.2504119 C17.1400329,10.6985173 17.3080725,10.8105437 17.5881384,10.8105437 C17.7561779,10.8105437 17.9802306,10.7545305 17.9802306,10.7545305 L17.9802306,11.8187809 C17.7001647,11.9868204 17.4200988,12.0428336 17.0840198,12.0428336 M15.7957166,7.89785832 L13.5551895,8.00988468 C12.7149918,8.06589786 11.7067545,8.45799012 11.7067545,9.52224053 C11.7067545,10.2504119 12.15486,10.9785832 13.3871499,10.9785832 C14.0593081,10.9785832 14.675453,10.7545305 15.1235585,10.306425 C15.6276771,9.80230643 15.8517298,9.07413509 15.8517298,8.40197694 L15.8517298,7.89785832 L15.7957166,7.89785832 Z" id="Shape"></path>
                        <path d="M25.5980231,11.9308072 L25.5980231,6.60955519 C25.5980231,5.37726524 25.0939044,4.59308072 23.7495881,4.59308072 C22.9654036,4.59308072 22.2932455,5.09719934 21.9011532,5.88138386 C21.6210873,6.49752883 21.6210873,7.3937397 21.6210873,8.00988468 L21.6210873,11.8747941 L20.2207578,11.8747941 L20.2207578,3.47281713 L21.4530478,3.47281713 L21.5650741,4.70510708 C22.0131796,3.75288303 23.1334432,3.24876442 24.0856672,3.24876442 C25.9901153,3.24876442 26.9983526,4.36902801 26.9983526,6.32948929 L26.9983526,11.8187809 L25.5980231,11.8187809 L25.5980231,11.9308072 Z" id="Path"></path>
                        <polygon id="Path" points="35.568369 11.9308072 32.9357496 7.89785832 31.3673806 9.69028007 31.3673806 11.9308072 29.9670511 11.9308072 29.9670511 3.97997579e-15 31.3673806 3.97997579e-15 31.3673806 7.78583196 35.1762768 3.52883031 36.8566722 3.52883031 33.8879736 6.88962109 37.1927512 11.9308072"></polygon>
                    </g>
                    <path d="M149.779242,21.0049423 C150.227348,21.0049423 150.61944,21.1169687 151.011532,21.3410214 C151.403624,21.5650741 151.68369,21.84514 151.963756,22.2372323 C152.187809,22.6293245 152.299835,23.0214168 152.299835,23.4695222 C152.299835,23.9176277 152.187809,24.3097199 151.963756,24.7018122 C151.739703,25.0939044 151.459638,25.3739703 151.067545,25.5980231 C150.675453,25.8220758 150.283361,25.9341021 149.835255,25.9341021 C149.38715,25.9341021 148.995058,25.8220758 148.602965,25.5980231 C148.210873,25.3739703 147.930807,25.0939044 147.706755,24.7018122 C147.482702,24.3097199 147.370675,23.9176277 147.370675,23.4695222 C147.370675,23.0214168 147.482702,22.6293245 147.706755,22.2372323 C147.930807,21.84514 148.210873,21.509061 148.658979,21.3410214 C148.939044,21.0609555 149.38715,21.0049423 149.779242,21.0049423 Z M149.779242,21.4530478 C149.443163,21.4530478 149.107084,21.509061 148.771005,21.7331137 C148.434926,21.9011532 148.210873,22.1252059 148.042834,22.461285 C147.874794,22.7973641 147.762768,23.1334432 147.762768,23.4695222 C147.762768,23.8056013 147.874794,24.1416804 148.042834,24.4777595 C148.210873,24.8138386 148.490939,25.0378913 148.771005,25.2059308 C149.107084,25.3739703 149.443163,25.4859967 149.779242,25.4859967 C150.115321,25.4859967 150.4514,25.3739703 150.787479,25.2059308 C151.123558,25.0378913 151.347611,24.7578254 151.515651,24.4777595 C151.68369,24.1416804 151.795717,23.8056013 151.795717,23.4695222 C151.795717,23.1334432 151.68369,22.7973641 151.515651,22.461285 C151.347611,22.1252059 151.067545,21.9011532 150.787479,21.7331137 C150.4514,21.5650741 150.115321,21.4530478 149.779242,21.4530478 Z M148.658979,24.8138386 L148.658979,22.1812191 L149.21911,22.1812191 C149.723229,22.1812191 150.003295,22.1812191 150.059308,22.1812191 C150.227348,22.1812191 150.395387,22.2372323 150.4514,22.2932455 C150.507414,22.3492586 150.61944,22.4052718 150.675453,22.5172982 C150.731466,22.6293245 150.787479,22.7413509 150.787479,22.9093904 C150.787479,23.07743 150.731466,23.2454695 150.61944,23.4135091 C150.507414,23.5255354 150.339374,23.6375618 150.115321,23.6375618 C150.171334,23.693575 150.283361,23.693575 150.283361,23.7495881 C150.339374,23.8056013 150.395387,23.8616145 150.4514,23.9736409 C150.4514,23.9736409 150.507414,24.0856672 150.61944,24.3097199 L150.955519,24.8698517 L150.283361,24.8698517 L150.059308,24.4217463 C149.891269,24.1416804 149.779242,23.9736409 149.667216,23.8616145 C149.555189,23.8056013 149.443163,23.7495881 149.275124,23.7495881 L149.21911,23.7495881 L149.21911,24.8138386 L148.658979,24.8138386 L148.658979,24.8138386 Z M149.21911,23.3014827 L149.443163,23.3014827 C149.779242,23.3014827 149.947282,23.3014827 150.003295,23.2454695 C150.059308,23.2454695 150.115321,23.1894563 150.171334,23.1334432 C150.227348,23.07743 150.227348,23.0214168 150.227348,22.9093904 C150.227348,22.8533773 150.227348,22.7973641 150.171334,22.7413509 C150.115321,22.6853377 150.059308,22.6293245 150.003295,22.6293245 C149.947282,22.6293245 149.723229,22.5733114 149.443163,22.5733114 L149.21911,22.5733114 L149.21911,23.3014827 Z" id="Shape" fill="#717375" fill-rule="nonzero"></path>
                    <rect id="Rectangle" fill="#717375" fill-rule="nonzero" x="96.9028007" y="0" width="1" height="34"></rect>
                </g>
                <line x1="257.407407" y1="0.407407407" x2="257.407407" y2="41.1481481" id="Line-12" stroke="#B4BFD6" stroke-linecap="square"></line>
                <g id="DIN_text" transform="translate(277.000000, 4.000000)" fill="#000000" fill-rule="nonzero">
                    <polygon id="Path" points="8.20507188 1.4380169 4.82623497 1.4380169 4.82623497 10.991276 3.38319004 10.991276 3.38319004 1.4380169 0.00435312761 1.4380169 0.00435312761 0.2262614 8.20507188 0.2262614"></polygon>
                    <path d="M9.49224785,0 L10.7844518,0 L10.7844518,4.83696594 C11.1662932,3.81101889 12.1759015,3.1570216 13.2682992,3.22799598 C13.9799012,3.18777017 14.669597,3.4814951 15.1336988,4.02242489 C15.6018342,4.68388177 15.8273814,5.48661644 15.7722587,6.29509496 L15.7722587,11.0113881 L14.4800547,11.0113881 L14.4800547,6.38559952 C14.5196132,5.84966043 14.3721287,5.31658392 14.0627281,4.87719018 C13.7522011,4.52776003 13.297211,4.34204981 12.8308605,4.37438707 C12.2418198,4.34703853 11.6772828,4.61237092 11.3224512,5.08333946 C10.9223628,5.67431024 10.7328538,6.382755 10.7844518,7.09455191 L10.7844518,11.0516124 L9.49224785,11.0516124 L9.49224785,0 Z" id="Path"></path>
                    <path d="M23.8070524,7.58227093 L18.4220311,7.58227093 C18.4030633,8.23306699 18.6271235,8.86760527 19.050535,9.36219394 C19.4668428,9.82233046 20.0644541,10.0760854 20.6846451,10.0560622 C21.1280518,10.0702803 21.5640216,9.93966582 21.9265688,9.68398793 C22.285076,9.41482438 22.5533514,9.04309639 22.6958576,8.61804534 L23.7618002,9.08565223 C23.535878,9.72318691 23.1133269,10.2725033 22.5550727,10.6543979 C21.9680245,11.0256743 21.283408,11.2130246 20.5891125,11.1923973 C19.6343623,11.2480966 18.7035881,10.8802016 18.0449288,10.186791 C17.3900545,9.37701249 17.0650276,8.34985578 17.1348551,7.31075725 C17.0693534,6.23817936 17.3924348,5.17790144 18.0449288,4.32410676 C18.6738717,3.59928067 19.6003599,3.20274375 20.5589443,3.2481081 C21.443239,3.19335364 22.309856,3.51263359 22.9472591,4.12801355 C23.5555778,4.83816144 23.8591274,5.75965121 23.7919683,6.69230942 L23.8070524,7.58227093 Z M22.4997643,6.3654874 C22.5416802,5.79564978 22.3615023,5.23169283 21.9969612,4.79171366 C21.6160903,4.40844332 21.0880823,4.20860696 20.5488883,4.24365826 C19.9724996,4.21634935 19.4121463,4.43792694 19.0103108,4.85205003 C18.6148803,5.32270809 18.4055972,5.92193722 18.4220311,6.53644045 L22.4997643,6.53644045 L22.4997643,6.3654874 Z" id="Shape"></path>
                    <path d="M29.1116253,0.2262614 L32.6312471,0.2262614 C33.5735171,0.207212005 34.5038214,0.4397881 35.3262717,0.90001757 C36.0911934,1.34478698 36.7110996,2.0013637 37.1112228,2.79055727 C37.5489618,3.65960449 37.7648786,4.62345719 37.7397267,5.59619863 C37.7577558,6.56236506 37.5403188,7.51839774 37.1061947,8.38172787 C36.7033798,9.18011989 36.0805314,9.84658513 35.3111876,10.3024358 C34.4872907,10.774283 33.550288,11.0124451 32.6010789,10.991276 L29.0814571,10.991276 L29.1116253,0.2262614 Z M32.5809667,9.77952052 C33.2721455,9.79604206 33.9521764,9.60324979 34.5318428,9.2264371 C35.0854521,8.85305627 35.5214219,8.32989246 35.7888506,7.71802777 C36.079288,7.04910443 36.2216498,6.3252891 36.2061772,5.59619863 C36.2208819,4.85529329 36.0768729,4.1198189 35.7838226,3.43917328 C35.5206821,2.84139441 35.0913576,2.33178968 34.5469269,1.9709882 C33.9627777,1.60630525 33.2844796,1.420997 32.5960508,1.4380169 L30.5345581,1.4380169 L30.5345581,9.77952052 L32.5809667,9.77952052 Z" id="Shape"></path>
                    <path d="M39.253164,0.377102334 L40.7314052,0.377102334 L40.7314052,2.01121245 L39.253164,2.01121245 L39.253164,0.377102334 Z M39.3436686,3.393921 L40.6308446,3.393921 L40.6308446,10.991276 L39.3436686,10.991276 L39.3436686,3.393921 Z" id="Shape"></path>
                    <path d="M47.6650601,4.02242489 C48.1362695,4.49628374 48.3894129,5.14462219 48.3639564,5.81240397 C48.3720436,6.2776389 48.2538862,6.73636761 48.0220503,7.13980419 C47.7884563,7.52538582 47.4525493,7.83866694 47.0516403,8.04484979 C46.5870915,8.28796146 46.0672024,8.40580299 45.543231,8.3867559 C45.0441779,8.38321564 44.5524557,8.26630268 44.1052141,8.04484979 C43.950127,8.10903553 43.8135725,8.21101927 43.7079996,8.34150362 C43.6080575,8.46904751 43.5548223,8.62697863 43.5571587,8.78899839 C43.555426,9.01320065 43.6670059,9.2231222 43.8538125,9.34710985 C44.147046,9.51331725 44.4830803,9.58857494 44.8191945,9.56331519 L46.6644819,9.56331519 C47.3517987,9.51224553 48.0347502,9.70839345 48.5902178,10.1163986 C49.0394258,10.5161892 49.2803587,11.0999882 49.2438619,11.7002284 C49.263034,12.4092881 48.9127609,13.0774723 48.3187041,13.4650673 C47.4584524,13.9567875 46.4711295,14.1808607 45.4828946,14.1086553 C44.252703,14.1086553 43.3761496,13.9175901 42.8532343,13.5354598 C42.3556416,13.1963088 42.0625969,12.6291255 42.0738895,12.0270504 C42.0658318,11.6800204 42.1777111,11.3408306 42.3906555,11.0666965 C42.6247155,10.7734997 42.9419522,10.557919 43.3007291,10.4482487 C42.754049,10.2448112 42.3993767,9.71381611 42.4208236,9.13090451 C42.4135193,8.79492989 42.5139523,8.46543897 42.7074214,8.19066269 C42.9109394,7.934329 43.1855222,7.74369508 43.4968223,7.6426073 C42.9932224,7.1614994 42.7188454,6.48836123 42.7426176,5.79229185 C42.7171824,5.09886671 42.9920607,4.42816382 43.4968223,3.95203246 C44.0602752,3.44600403 44.8021853,3.18543074 45.5583151,3.22799598 C46.0789111,3.22054893 46.5944906,3.33053921 47.0667244,3.54978997 C47.1703967,3.15903897 47.3894209,2.80860035 47.6952283,2.54418375 C48.0275786,2.27738017 48.4460922,2.14145268 48.8717876,2.16205338 C49.0412225,2.1615774 49.2100788,2.18184016 49.3745907,2.22238975 L49.3745907,3.34866872 C49.1955443,3.31368704 49.0139216,3.29350674 48.8315633,3.28833235 C48.3191689,3.23128936 47.8353103,3.53578657 47.6650601,4.02242489 Z M44.7538301,10.7197623 C44.5879051,10.7197623 44.3767277,10.7197623 44.1152701,10.6895942 C43.8722217,10.7971314 43.6647227,10.9715004 43.5169344,11.1923973 C43.3816784,11.3834212 43.3095933,11.6119838 43.3107851,11.8460413 C43.2962312,12.2568436 43.5331678,12.6351457 43.9091208,12.8013672 C44.4500254,13.0185126 45.0314478,13.1162739 45.6136234,13.087965 C46.2351829,13.1397846 46.8591339,13.0215989 47.4186866,12.7460589 C47.7382375,12.5532376 47.9300835,12.2040779 47.9214897,11.8309572 C47.937468,11.5106913 47.7873614,11.2047778 47.5242752,11.0214442 C47.1688458,10.8080515 46.7561568,10.7097086 46.3426879,10.7398745 L44.7538301,10.7197623 Z M46.6946501,6.948739 C46.9882876,6.64276201 47.1460118,6.23122855 47.1320888,5.80737594 C47.1652594,5.21748822 46.8694088,4.65764541 46.3633647,4.35270737 C45.8573206,4.04776932 45.2241133,4.04776932 44.7180692,4.35270737 C44.2120251,4.65764541 43.9161745,5.21748822 43.9493451,5.80737594 C43.932672,6.23467288 44.090596,6.65035795 44.3867838,6.95879507 C45.0390794,7.55880006 46.0423545,7.55880006 46.6946501,6.95879507 L46.6946501,6.948739 Z" id="Shape"></path>
                    <path d="M50.4707015,0.377102334 L51.9439146,0.377102334 L51.9439146,2.01121245 L50.4707015,2.01121245 L50.4707015,0.377102334 Z M50.561206,3.393921 L51.848382,3.393921 L51.848382,10.991276 L50.561206,10.991276 L50.561206,3.393921 Z" id="Shape"></path>
                    <path d="M52.989745,3.4090051 L54.3975938,3.4090051 L54.3975938,1.42796084 L55.6847697,0.879905446 L55.6847697,3.393921 L57.5803375,3.393921 L57.5803375,4.46991966 L55.6847697,4.46991966 L55.6847697,8.67335368 C55.6549337,9.01043724 55.7497479,9.34675915 55.9512554,9.61862353 C56.1758751,9.83299143 56.4815055,9.94096867 56.7909366,9.91527736 C57.057251,9.91050081 57.3221295,9.8750712 57.5803375,9.80968871 L57.5803375,10.991276 C57.2143392,11.0864631 56.8372259,11.1321225 56.4590865,11.1270329 C55.8540743,11.1950279 55.2538251,10.9643071 54.8501166,10.508585 C54.5159178,9.97387906 54.3576634,9.34789515 54.3975938,8.71860596 L54.3975938,4.46991966 L52.989745,4.46991966 L52.989745,3.4090051 Z" id="Path"></path>
                    <path d="M58.963046,10.5588653 C58.493293,10.1555358 58.2354896,9.5583223 58.2641497,8.93983933 C58.2522235,8.18948941 58.6674346,7.49747106 59.3351203,7.15488828 C59.6576653,7.00159209 59.9944833,6.88033759 60.3407265,6.79287004 C60.8369724,6.67250607 61.3409931,6.58682256 61.8491359,6.53644045 L63.2569846,6.3654874 L63.2569846,6.24481465 C63.3059758,5.71167635 63.1672629,5.17816507 62.8647982,4.73640531 C62.5262282,4.4048764 62.0597499,4.23775231 61.5876783,4.27885448 C61.1441464,4.25849499 60.7082721,4.39961824 60.3608387,4.67606894 C60.0455723,4.95799615 59.863148,5.35932952 59.8580356,5.78223579 L58.475327,5.78223579 C58.4983695,5.05676273 58.8338418,4.37665226 59.3954567,3.91683624 C60.0141218,3.43444786 60.78368,3.18683539 61.5675661,3.21793992 C62.4042069,3.14070013 63.2351575,3.41586139 63.8603483,3.97717261 C64.3363353,4.47997573 64.5743287,5.28110868 64.5743287,6.38057149 L64.5743287,8.42698015 C64.542835,9.28971189 64.6308213,10.1526538 64.8357864,10.991276 L63.483246,10.991276 C63.4229096,10.5337252 63.3776573,10.0711463 63.3625732,9.6135955 C63.1957678,10.0942662 62.8621761,10.4992144 62.4223314,10.7549586 C61.9371288,11.0410786 61.3815127,11.1856432 60.8183895,11.1722851 C60.1453101,11.2046797 59.4841647,10.9860896 58.963046,10.5588653 L58.963046,10.5588653 Z M62.6988731,9.44767047 C63.117035,8.95776051 63.3312086,8.32603848 63.2972088,7.68283155 L63.2972088,7.30070118 L61.2357161,7.60741108 C60.7989702,7.64478636 60.3787217,7.79178686 60.0139045,8.03479373 C59.7538783,8.24887459 59.61033,8.57325658 59.6267461,8.90967114 C59.6119495,9.24940117 59.7593717,9.57596917 60.0239606,9.78957659 C60.34018,10.0179584 60.7256862,10.1298796 61.1150433,10.1063425 C61.7134214,10.1319792 62.2927432,9.892894 62.6988731,9.4526985 L62.6988731,9.44767047 Z" id="Shape"></path>
                    <polygon id="Path" points="68.0285861 10.991276 66.7363821 10.991276 66.7363821 0 68.0285861 0"></polygon>
                    <polygon id="Path" points="74.0169712 10.991276 74.0169712 0.2262614 75.4549881 0.2262614 75.4549881 10.991276"></polygon>
                    <path d="M77.8784991,3.4090051 L79.0952826,3.4090051 L79.0952826,4.91741443 C79.4813053,3.87171911 80.4953712,3.192295 81.6092982,3.23302401 C82.3347547,3.18184887 83.0421718,3.47412385 83.51995,4.02242489 C83.9892075,4.68524908 84.21481,5.48995708 84.1585099,6.30012299 L84.1585099,11.0164162 L82.866306,11.0164162 L82.866306,6.3504033 C82.866306,5.009595 82.3115465,4.33919085 81.2020277,4.33919085 C80.6098715,4.31353671 80.0439884,4.58516062 79.6936183,5.06322734 C79.3081709,5.64710757 79.124509,6.3411376 79.1707031,7.03924357 L79.1707031,10.9963041 L77.8784991,10.9963041 L77.8784991,3.4090051 Z" id="Path"></path>
                    <path d="M84.9127146,3.4090051 L86.3205633,3.4090051 L86.3205633,1.42796084 L87.6127673,0.879905446 L87.6127673,3.393921 L89.503307,3.393921 L89.503307,4.46991966 L87.6077393,4.46991966 L87.6077393,8.67335368 C87.5779033,9.01043724 87.6727174,9.34675915 87.8742249,9.61862353 C88.0981441,9.83412927 88.4043054,9.94229406 88.7139061,9.91527736 C88.9801872,9.91006176 89.2450159,9.87463881 89.503307,9.80968871 L89.503307,10.991276 C89.1373088,11.0864631 88.7601955,11.1321225 88.3820561,11.1270329 C87.7769325,11.1958984 87.1762942,10.965028 86.7730861,10.508585 C86.4386852,9.97379008 86.2787916,9.34827216 86.3155353,8.71860596 L86.3155353,4.46991966 L84.9076866,4.46991966 L84.9127146,3.4090051 Z" id="Path"></path>
                    <path d="M96.8593166,7.58227093 L91.4793233,7.58227093 C91.4579032,8.2334482 91.6822677,8.86884842 92.1078271,9.36219394 C92.5221708,9.82210956 93.1181955,10.075972 93.7369092,10.0560622 C94.1806051,10.0725229 94.6172772,9.94169802 94.9788329,9.68398793 C95.3403624,9.41670431 95.6107378,9.04449925 95.7531497,8.61804534 L96.8140643,9.08565223 C96.5919734,9.72384121 96.1707036,10.2737834 95.6123648,10.6543979 C95.0253167,11.0256743 94.3407001,11.2130246 93.6464047,11.1923973 C92.6902704,11.2475237 91.7581894,10.8798389 91.0971929,10.186791 C90.4458893,9.37533365 90.1229046,8.34896 90.1921473,7.31075725 C90.1266456,6.23817936 90.4497269,5.17790144 91.1022209,4.32410676 C92.4297346,2.95279905 94.5974505,2.85787871 96.0397475,4.10790142 C96.6443351,4.81990003 96.9457856,5.74049723 96.8794287,6.67219729 L96.8593166,7.58227093 Z M95.5369444,6.3654874 C95.5788602,5.79564978 95.3986823,5.23169283 95.0341413,4.79171366 C94.6529041,4.40900865 94.1251625,4.20927311 93.5860683,4.24365826 C93.0096796,4.21634935 92.4493263,4.43792694 92.0474908,4.85205003 C91.6592949,5.32558631 91.4572664,5.92452044 91.4793233,6.53644045 L95.5369444,6.53644045 L95.5369444,6.3654874 Z" id="Shape"></path>
                    <path d="M100.615256,3.76096728 C101.003924,3.4111159 101.510278,3.2207843 102.033161,3.22799598 C102.123596,3.22299498 102.214239,3.22299498 102.304674,3.22799598 L102.304674,4.52522801 L102.244338,4.52522801 C101.157853,4.43369297 100.173906,5.16733749 99.9515557,6.23475859 C99.8563174,6.74027986 99.8108479,7.25391759 99.8157988,7.76830808 L99.8157988,11.0113881 L98.553763,11.0113881 L98.553763,3.4090051 L99.7504344,3.4090051 L99.7504344,5.1386478 C99.9140875,4.61206975 100.212158,4.13723682 100.615256,3.76096728 L100.615256,3.76096728 Z" id="Path"></path>
                    <path d="M105.73882,10.7700427 C105.325075,10.5124019 104.999034,10.135526 104.803606,9.68901596 L104.5874,10.991276 L103.581794,10.991276 L103.581794,0 L104.86897,0 L104.86897,4.73137728 C105.079819,4.29191939 105.404471,3.91692044 105.809212,3.64532256 C106.759108,3.0580392 107.967663,3.09364311 108.881339,3.73582712 C109.361319,4.09948421 109.73186,4.58832055 109.95231,5.14870386 C110.213055,5.80067106 110.341252,6.49806575 110.329412,7.20014056 C110.342282,7.90977569 110.210554,8.61460319 109.942254,9.27168938 C109.71581,9.83150095 109.338018,10.3172347 108.851171,10.6745101 C108.371089,11.0138328 107.794759,11.1900804 107.207005,11.1773132 C106.688254,11.1885169 106.177668,11.0468816 105.73882,10.7700427 Z M108.413732,9.26163332 C108.81655,8.64858582 109.012165,7.92252144 108.971844,7.1900845 C109.011714,6.46137425 108.821771,5.73853887 108.428816,5.12356371 C108.072022,4.65647026 107.521443,4.37789734 106.933768,4.36712329 C106.346093,4.35634924 105.785673,4.61455387 105.411997,5.06825537 C105.012061,5.64517088 104.814075,6.33812247 104.848858,7.03924357 L104.848858,7.43142999 C104.813661,8.10926656 105.004675,8.77958664 105.391885,9.33705379 C105.735514,9.80187522 106.287578,10.0656599 106.865098,10.0409781 C107.477394,10.0647704 108.060156,9.77717332 108.413732,9.27671741 L108.413732,9.26163332 Z" id="Shape"></path>
                    <path d="M111.94341,10.5588653 C111.478601,10.1523132 111.223383,9.55680598 111.249542,8.93983933 C111.243874,8.57468887 111.337735,8.2148861 111.521055,7.89903689 C111.712136,7.58295224 111.984819,7.32416404 112.310456,7.14986025 C112.632695,6.99582918 112.969587,6.87454794 113.316062,6.78784201 C113.812344,6.66765238 114.316353,6.58197094 114.824472,6.53141242 L116.237348,6.36045936 L116.237348,6.23978662 C116.284448,5.70608523 116.14398,5.17266323 115.840134,4.73137728 C115.503482,4.40006983 115.038596,4.2328581 114.568042,4.27382645 C114.12451,4.25346696 113.688636,4.39459021 113.341203,4.67104091 C113.025936,4.95296812 112.843512,5.35430148 112.838399,5.77720775 L111.460719,5.77720775 C111.482513,5.05254705 111.816085,4.37257315 112.375821,3.91180821 C112.996441,3.42945511 113.767545,3.18191854 114.552958,3.21291188 C115.3814,3.13866231 116.203741,3.40974365 116.825628,3.96208852 C117.301615,4.46489163 117.539609,5.26602459 117.539609,6.3654874 L117.539609,8.41189606 C117.50647,9.27439526 117.592764,10.1373339 117.796038,10.9761919 L116.448526,10.9761919 C116.38338,10.5194895 116.343096,10.0595848 116.327853,9.5985114 C116.157955,10.0774391 115.825153,10.481429 115.387611,10.7398745 C114.900949,11.026906 114.343462,11.171504 113.778641,11.1572011 C113.114512,11.1874147 112.462111,10.9747143 111.94341,10.5588653 L111.94341,10.5588653 Z M115.684265,9.44767047 C116.100176,8.95648427 116.314037,8.32568245 116.282601,7.68283155 L116.282601,7.30070118 L114.221108,7.60741108 C113.784178,7.64392338 113.36372,7.79099715 112.999296,8.03479373 C112.73927,8.24887459 112.595722,8.57325658 112.612138,8.90967114 C112.597731,9.24823023 112.742911,9.57395475 113.004324,9.78957659 C113.32091,10.0172071 113.706143,10.129049 114.095407,10.1063425 C114.696187,10.1315068 115.277503,9.89051833 115.684265,9.44767047 L115.684265,9.44767047 Z" id="Shape"></path>
                    <path d="M119.671494,3.4090051 L120.883249,3.4090051 L120.883249,4.91741443 C121.270568,3.87274025 122.283789,3.19388179 123.397265,3.23302401 C124.114384,3.18830096 124.811423,3.48012764 125.282776,4.02242489 C125.755885,4.68340778 125.981883,5.48952802 125.921336,6.30012299 L125.921336,11.0164162 L124.63416,11.0164162 L124.63416,6.3504033 C124.63416,5.009595 124.077725,4.33919085 122.964854,4.33919085 C122.372138,4.31078828 121.805021,4.58300466 121.456445,5.06322734 C121.068925,5.64617726 120.885074,6.34092093 120.93353,7.03924357 L120.93353,10.9963041 L119.671494,10.9963041 L119.671494,3.4090051 Z" id="Path"></path>
                    <polygon id="Path" points="130.733162 7.27556103 129.350454 8.67335368 129.350454 10.991276 128.063278 10.991276 128.063278 0 129.350454 0 129.350454 7.13980419 132.744375 3.4090051 134.423737 3.4090051 131.638208 6.33531921 134.59469 10.991276 133.000804 10.991276"></polygon>
                    <path d="M139.366292,0.2262614 L141.111018,0.2262614 L145.676471,8.04484979 C145.931944,8.49081602 146.147319,8.95858323 146.320059,9.44264244 L146.350227,9.44264244 C146.320059,9.05045601 146.320059,8.58787715 146.320059,8.04484979 L146.320059,0.2262614 L147.612263,0.2262614 L147.612263,10.991276 L145.867536,10.991276 L141.292028,3.15257551 C141.030709,2.71376065 140.808615,2.25274657 140.628327,1.77489498 L140.598159,1.77489498 C140.628327,2.14696929 140.643412,2.62463224 140.643412,3.19782779 L140.643412,10.991276 L139.351208,10.991276 L139.366292,0.2262614 Z" id="Path"></path>
                    <path d="M156.029187,7.58227093 L150.649193,7.58227093 C150.625266,8.23383311 150.849945,8.87012329 151.277697,9.36219394 C151.69163,9.82268438 152.287936,10.0766664 152.906779,10.0560622 C153.350475,10.0725229 153.787147,9.94169802 154.148703,9.68398793 C154.508617,9.4151062 154.778589,9.0434569 154.92302,8.61804534 L155.983934,9.08565223 C155.758012,9.72318691 155.335461,10.2725033 154.777207,10.6543979 C154.19222,11.0261281 153.509056,11.2135604 152.816275,11.1923973 C151.86003,11.2482152 150.927668,10.8804198 150.267063,10.186791 C149.602351,9.37353814 149.270032,8.33886017 149.336877,7.29064512 C149.276308,6.21865457 149.598878,5.16005212 150.246951,4.30399464 C151.579185,2.9504736 153.733712,2.86464465 155.169393,4.10790142 C155.773981,4.81990003 156.075432,5.74049723 156.009075,6.67219729 L156.029187,7.58227093 Z M154.726927,6.3654874 C154.764194,5.79620997 154.584552,5.23393185 154.224124,4.79171366 C153.842886,4.40900865 153.315145,4.20927311 152.776051,4.24365826 C152.199002,4.21233617 151.637045,4.43454802 151.237473,4.85205003 C150.842043,5.32270809 150.63276,5.92193722 150.649193,6.53644045 L154.726927,6.53644045 L154.726927,6.3654874 Z" id="Shape"></path>
                    <path d="M156.562158,3.4090051 L157.970007,3.4090051 L157.970007,1.42796084 L159.257183,0.879905446 L159.257183,3.393921 L161.15275,3.393921 L161.15275,4.46991966 L159.257183,4.46991966 L159.257183,8.67335368 C159.227347,9.01043724 159.322161,9.34675915 159.523668,9.61862353 C159.748288,9.83299143 160.053919,9.94096867 160.36335,9.91527736 C160.629664,9.91050081 160.894543,9.8750712 161.15275,9.80968871 L161.15275,10.991276 C160.786752,11.0864631 160.409639,11.1321225 160.0315,11.1270329 C159.426487,11.1950279 158.826238,10.9643071 158.42253,10.508585 C158.088331,9.97387906 157.930076,9.34789515 157.970007,8.71860596 L157.970007,4.46991966 L156.562158,4.46991966 L156.562158,3.4090051 Z" id="Path"></path>
                    <path d="M161.906955,3.4090051 L163.239383,3.4090051 L164.607008,8.82419461 C164.6774,9.12587648 164.732709,9.42253031 164.772933,9.71918415 L164.803101,9.71918415 C164.828241,9.55325912 164.858409,9.39236213 164.898634,9.21638104 C164.938858,9.04039995 164.979082,8.89961508 164.999194,8.80911052 L166.381903,3.4090051 L167.779695,3.4090051 L169.157376,8.82419461 C169.157376,8.91469917 169.212684,9.05045601 169.257937,9.23146513 C169.303189,9.41247425 169.328329,9.55325912 169.353469,9.73426824 L169.383637,9.73426824 C169.424063,9.43301236 169.481134,9.13422537 169.55459,8.83927871 L170.917187,3.42408919 L172.249615,3.42408919 L170.112702,11.0063601 L168.704853,11.0063601 L167.261808,5.53083423 C167.186717,5.25181242 167.131273,4.96787108 167.095883,4.68109697 L167.065715,4.68109697 C167.030325,4.96787108 166.974881,5.25181242 166.89979,5.53083423 L165.456745,10.986248 L164.048896,10.986248 L161.906955,3.4090051 Z" id="Path"></path>
                    <path d="M174.477033,10.6946222 C173.934268,10.3740769 173.502632,9.89506629 173.240137,9.32196969 C172.93649,8.65678871 172.788601,7.9310998 172.807727,7.20014056 C172.789658,6.46927435 172.937499,5.74382036 173.240137,5.07831143 C173.50398,4.50610239 173.935291,4.02745338 174.477033,3.70565893 C175.63827,3.07254877 177.041567,3.07254877 178.202804,3.70565893 C178.74334,4.02892213 179.17427,4.50714936 179.4397,5.07831143 C179.742338,5.74382036 179.890179,6.46927435 179.87211,7.20014056 C179.891236,7.9310998 179.743347,8.65678871 179.4397,9.32196969 C179.17559,9.89400288 178.744344,10.3725807 178.202804,10.6946222 C177.043012,11.3333755 175.636825,11.3333755 174.477033,10.6946222 L174.477033,10.6946222 Z M177.941346,9.32196969 C178.35894,8.69678639 178.555401,7.94987967 178.499458,7.20014056 C178.553146,6.44989923 178.354968,5.70319278 177.936318,5.07831143 C177.565279,4.64822821 177.037621,4.38443216 176.470927,4.34570807 C175.904233,4.30698399 175.345595,4.49654975 174.9195,4.87216215 L174.71335,5.07831143 C174.29539,5.70368592 174.095658,6.44958629 174.145183,7.20014056 C174.094896,7.95076943 174.294693,8.69691126 174.71335,9.32196969 C175.084389,9.75205291 175.612048,10.015849 176.178742,10.054573 C176.745436,10.0932971 177.304074,9.90373138 177.730169,9.52811897 C177.796857,9.46377065 177.859017,9.3948901 177.916206,9.32196969 L177.941346,9.32196969 Z" id="Shape"></path>
                    <path d="M183.527489,3.76096728 C183.916157,3.4111159 184.422511,3.2207843 184.945394,3.22799598 C185.035829,3.22299498 185.126472,3.22299498 185.216907,3.22799598 L185.216907,4.52522801 L185.156571,4.52522801 C184.544552,4.48435735 183.942677,4.69710446 183.492293,5.11350765 C183.17706,5.4165334 182.959891,5.80708871 182.868817,6.23475859 C182.768578,6.73957671 182.723063,7.25373139 182.73306,7.76830808 L182.73306,11.0113881 L181.445884,11.0113881 L181.445884,3.4090051 L182.642555,3.4090051 L182.642555,5.1386478 C182.809727,4.60887633 183.115209,4.1332963 183.527489,3.76096728 L183.527489,3.76096728 Z" id="Path"></path>
                    <polygon id="Path" points="189.16894 7.27556103 187.791259 8.67335368 187.791259 10.991276 186.504083 10.991276 186.504083 0 187.791259 0 187.791259 7.13980419 191.18518 3.4090051 192.869571 3.4090051 190.094098 6.33531921 193.05058 10.991276 191.461722 10.991276"></polygon>
                    <polygon id="Path" points="195.242801 3.01681867 194.478541 3.01681867 194.478541 5.17887205 194.151719 5.17887205 194.151719 3.01681867 193.392486 3.01681867 193.392486 2.75033302 195.242801 2.75033302"></polygon>
                    <path d="M195.519343,2.75033302 L195.981922,2.75033302 L196.62551,4.6207606 C196.640218,4.65833946 196.651986,4.69700397 196.660706,4.73640531 C196.672571,4.77239816 196.680988,4.8094368 196.685846,4.847022 L196.685846,4.847022 C196.685846,4.80679775 196.685846,4.7665735 196.710987,4.73640531 C196.719707,4.69700397 196.731474,4.65833946 196.746183,4.6207606 L197.389771,2.75033302 L197.85235,2.75033302 L197.85235,5.17887205 L197.555696,5.17887205 L197.555696,3.30341644 C197.550689,3.2163358 197.550689,3.12903947 197.555696,3.04195883 L197.555696,3.04195883 C197.550458,3.08814889 197.540346,3.13365474 197.525528,3.17771567 C197.51512,3.2254498 197.501685,3.27247314 197.485303,3.31850054 L196.841715,5.17887205 L196.524949,5.17887205 L195.881361,3.31850054 C195.86498,3.27247314 195.851545,3.2254498 195.841137,3.17771567 C195.826319,3.13365474 195.816206,3.08814889 195.810969,3.04195883 L195.810969,3.04195883 C195.815975,3.12903947 195.815975,3.2163358 195.810969,3.30341644 L195.810969,5.17887205 L195.514315,5.17887205 L195.519343,2.75033302 Z" id="Path"></path>
                    <path d="M1.84461252,22.7015605 C1.53286705,22.8120557 1.26140206,23.0134652 1.06526769,23.2797841 C0.917548095,23.5684128 0.849837301,23.8913412 0.86917448,24.2149979 L0.86917448,24.2602501 L1.90997692,24.2602501 L1.90997692,26.17593 L0.00435312761,26.17593 L0.00435312761,24.3758949 C-0.0238514091,23.8540372 0.0853744835,23.3339139 0.321119088,22.8674855 C0.599996987,22.4620214 1.00193195,22.1570444 1.46751018,21.9976361 L1.84461252,22.7015605 Z M4.50946901,22.7015605 C4.19772354,22.8120557 3.92625855,23.0134652 3.73012419,23.2797841 C3.57652444,23.5665632 3.50518118,23.890218 3.52397491,24.2149979 L3.52397491,24.2602501 L4.57483341,24.2602501 L4.57483341,26.17593 L2.67423765,26.17593 L2.67423765,24.3758949 C2.64603311,23.8540372 2.75525901,23.3339139 2.99100361,22.8674855 C3.26882524,22.4610147 3.67113137,22.1557561 4.13739471,21.9976361 L4.50946901,22.7015605 Z" id="Shape"></path>
                    <polygon id="Path" points="14.8219608 23.4959894 11.2017784 23.4959894 11.2017784 33.7330608 9.65817287 33.7330608 9.65817287 23.4959894 6.03799047 23.4959894 6.03799047 22.1987574 14.8219608 22.1987574"></polygon>
                    <polygon id="Path" points="25.34563 33.7330608 23.8070524 33.7330608 23.8070524 28.4837963 17.9896204 28.4837963 17.9896204 33.7330608 16.4460149 33.7330608 16.4460149 22.1987574 17.9896204 22.1987574 17.9896204 27.1865643 23.8070524 27.1865643 23.8070524 22.1987574 25.34563 22.1987574"></polygon>
                    <polygon id="Path" points="35.7033741 32.4308007 35.7033741 33.7330608 28.4328411 33.7330608 28.4328411 22.1987574 35.5776733 22.1987574 35.5776733 23.4959894 29.9764466 23.4959894 29.9764466 27.151368 35.3011316 27.151368 35.3011316 28.4536281 29.9764466 28.4536281 29.9764466 32.4308007"></polygon>
                    <path d="M42.2699827,22.1987574 L44.1404103,22.1987574 L49.0276565,30.5955694 C49.309353,31.0667429 49.5499128,31.5613204 49.746665,32.0738105 L49.7818612,32.0738105 C49.751693,31.6615119 49.7315809,31.1536808 49.7315809,30.5654012 L49.7315809,22.1987574 L51.1142894,22.1987574 L51.1142894,33.7330608 L49.2388338,33.7330608 L44.3515876,25.3362488 C44.0695231,24.86603 43.8305566,24.3712684 43.6376072,23.8580077 L43.602411,23.8580077 C43.6376072,24.2552221 43.6526913,24.7630533 43.6526913,25.366417 L43.6526913,33.7330608 L42.2699827,33.7330608 L42.2699827,22.1987574 Z" id="Path"></path>
                    <polygon id="Path" points="61.4569495 32.4308007 61.4569495 33.7330608 54.1964725 33.7330608 54.1964725 22.1987574 61.3463328 22.1987574 61.3463328 23.4959894 55.73505 23.4959894 55.73505 27.151368 61.064763 27.151368 61.064763 28.4536281 55.73505 28.4536281 55.73505 32.4308007"></polygon>
                    <polygon id="Path" points="71.4627314 23.4959894 67.8375209 23.4959894 67.8375209 33.7330608 66.2939154 33.7330608 66.2939154 23.4959894 62.673733 23.4959894 62.673733 22.1987574 71.4627314 22.1987574"></polygon>
                    <path d="M72.1917959,22.1987574 L73.7655696,22.1987574 L75.7767821,31.4905589 C75.8170063,31.7168203 75.8522025,31.9279976 75.8723147,32.1240908 L75.922595,32.1240908 C75.9482103,31.909602 75.9919428,31.6976675 76.0533238,31.4905589 L78.4215264,22.1987574 L79.9500479,22.1987574 L82.3232786,31.4905589 C82.3822541,31.6982637 82.4259471,31.9100067 82.4540074,32.1240908 L82.5042877,32.1240908 C82.5042877,31.9279976 82.554568,31.7168203 82.5998203,31.4905589 L84.6110327,22.1987574 L86.1898345,22.1987574 L83.4696697,33.7330608 L81.584158,33.7330608 L79.3416561,24.7328851 C79.2948039,24.5565433 79.2628474,24.3765774 79.2461235,24.1948857 L79.1807591,24.1948857 C79.1623171,24.3767117 79.1286793,24.5566738 79.0801985,24.7328851 L76.8427247,33.7330608 L74.9220168,33.7330608 L72.1917959,22.1987574 Z" id="Path"></path>
                    <path d="M89.2569335,33.2704819 C88.4471874,32.7637651 87.8052162,32.0290842 87.4116461,31.1587088 C86.9600005,30.1561439 86.7383823,29.0652328 86.7630301,27.9659091 C86.7328438,26.8531263 86.954574,25.7479131 87.4116461,24.7328851 C87.8013781,23.8613637 88.4443508,23.1272886 89.2569335,22.62614 C90.9849507,21.6609172 93.0899187,21.6609172 94.8179359,22.62614 C95.6233497,23.1239677 96.2622498,23.8503883 96.6531673,24.7127729 C97.1102394,25.7278009 97.3319696,26.8330142 97.3017833,27.945797 C97.3322543,29.0569821 97.1104946,30.1606234 96.6531673,31.1737929 C96.2617536,32.0416047 95.6189379,32.7719974 94.8078799,33.2704819 C93.0925665,34.2431727 90.9923589,34.2431727 89.2770456,33.2704819 L89.2569335,33.2704819 Z M94.7224033,31.4503346 C95.4166377,30.4261074 95.7525304,29.200983 95.6777292,27.9659091 C95.7525304,26.7308351 95.4166377,25.5057108 94.7224033,24.4814835 C93.4818579,23.0131251 91.2926802,22.811667 89.8049889,24.0289607 C89.6394413,24.1643408 89.4878462,24.3159359 89.3524661,24.4814835 C88.6522335,25.503329 88.3125409,26.7294071 88.3870841,27.9659091 C88.3174409,29.1956071 88.6568977,30.4137619 89.3524661,31.4302225 C89.934049,32.1463957 90.7765932,32.6018526 91.694333,32.6961732 C92.6120728,32.7904938 93.5296445,32.5159328 94.2447404,31.9330256 C94.4186707,31.7910754 94.5786205,31.6328093 94.7224033,31.4603907 L94.7224033,31.4503346 Z" id="Shape"></path>
                    <path d="M103.375645,28.9413471 L101.03761,28.9413471 L101.03761,33.7330608 L99.4940049,33.7330608 L99.4940049,22.1987574 L103.767831,22.1987574 C105.155568,22.1987574 106.13771,22.5155233 106.714258,23.1490553 C107.314226,23.8127652 107.633269,24.6833743 107.604219,25.5775943 C107.61013,26.2824493 107.391788,26.9709311 106.980743,27.5435545 C106.49313,28.1717106 105.788347,28.594939 105.004727,28.7301698 L107.961209,33.7582009 L106.226539,33.7582009 L103.375645,28.9413471 Z M101.03761,27.6541711 L103.581794,27.6541711 C104.238783,27.7195306 104.894515,27.5184635 105.401941,27.0960597 C106.141666,26.226489 106.141666,24.9488118 105.401941,24.079241 C104.895672,23.6527797 104.241636,23.443199 103.581794,23.4959894 L101.032582,23.4959894 L101.03761,27.6541711 Z" id="Shape"></path>
                    <polygon id="Path" points="113.381427 27.9156288 111.676924 29.7860563 111.676924 33.7330608 110.118235 33.7330608 110.118235 22.1987574 111.66184 22.1987574 111.66184 27.9156288 116.730096 22.1987574 118.665888 22.1987574 114.427257 26.8094619 119.022878 33.7330608 117.222843 33.7330608"></polygon>
                    <path d="M120.400558,25.6731269 C120.710941,25.5626446 120.981971,25.3633067 121.179903,25.0999313 C121.326701,24.8109775 121.394359,24.4883018 121.375996,24.1647176 L121.375996,24.1345494 L120.335194,24.1345494 L120.335194,22.1987574 L122.23579,22.1987574 L122.23579,24.0038206 C122.262591,24.5255698 122.15344,25.0453366 121.919024,25.5122299 C121.640937,25.9173363 121.238532,26.2209051 120.772633,26.3770512 L120.400558,25.6731269 Z M123.065415,25.6731269 C123.37443,25.5600816 123.644788,25.3612374 123.84476,25.0999313 C123.989822,24.8105028 124.05574,24.4878512 124.035825,24.1647176 L124.035825,24.1345494 L123.00005,24.1345494 L123.00005,22.1987574 L124.900646,22.1987574 L124.900646,24.0038206 C124.927448,24.5255698 124.818297,25.0453366 124.58388,25.5122299 C124.303441,25.9150791 123.901864,26.218023 123.437489,26.3770512 L123.065415,25.6731269 Z" id="Shape"></path>
                </g>
            </g>
        </g>
    </g>
</svg>