<?xml version="1.0" encoding="UTF-8"?>
<svg width="404px" height="35px" viewBox="0 0 404 35" version="1.1" xmlns="http://www.w3.org/2000/svg" xmlns:xlink="http://www.w3.org/1999/xlink">
    <title>Coastal lockup@2x</title>
    <g id="new-global-header" stroke="none" stroke-width="1" fill="none" fill-rule="evenodd">
        <g id="New-generic-Client-Dashboard" transform="translate(-140.000000, -30.000000)">
            <g id="Coastal-lockup" transform="translate(140.000000, 30.000000)">
                <g id="coastal_horiz_color" fill-rule="nonzero">
                    <path d="M2.31165394,17.302799 C3.00883962,16.6821904 3.58088215,15.9339541 3.99694656,15.0984224 C4.06961832,15.0049873 4.34300254,14.4443766 4.39145038,14.3474809 C4.70442518,13.5362258 5.07089632,12.7466366 5.48844784,11.9839186 C5.91780434,11.2539802 6.40499733,10.5596434 6.94534351,9.9075827 C8.13833476,8.49797587 9.69398514,7.44133027 11.4440712,6.8519084 C15.8632061,5.27389313 20.6733842,6.26361323 22.8881425,9.96641221 C23.3105357,10.6448893 23.6071217,11.3939742 23.7636641,12.1777099 C23.9402603,12.9257472 24.0205035,13.6932916 24.0024427,14.4616794 C24.0024427,14.5032061 23.9816794,14.4616794 23.9747583,14.4893639 C23.820931,13.7882212 23.610295,13.1007611 23.3449364,12.4337913 C23.1211199,11.9531788 22.8608165,11.4904171 22.5663104,11.0495674 C19.8359288,7.10798982 14.2609669,6.71348601 10.2813232,9.47155216 C9.24926634,10.1501597 8.38343499,11.0526588 7.74819338,12.1119593 C7.44595331,12.5622318 7.19303076,13.0437128 6.99379135,13.5480916 C6.80023398,14.0093843 6.65975576,14.4911898 6.57506361,14.9842239 C5.88295165,18.5935878 7.71358779,21.9676336 9.98025445,23.7532824 C10.4980475,24.1693074 11.0610539,24.5256846 11.658626,24.8156743 C12.5143985,25.2409906 13.4307035,25.5316402 14.3751654,25.6773537 C18.7562341,26.3002545 20.6560814,25.0129262 24.6149618,22.8396947 L26.6463104,21.6354198 C28.5011705,20.7079898 31.2315522,19.2891603 33.56743,20.7010687 C33.740458,20.8048855 33.882341,20.8844784 34.0103817,20.9675318 L34.0103817,19.5383206 C31.7644784,18.2544529 29.9407634,18.749313 27.3868702,19.8532316 C27.0408142,20.0054962 26.5563359,20.2615776 26.0337913,20.5453435 C25.7292621,20.7079898 25.5147074,20.8533333 25.258626,20.9744529 C22.7012723,22.2064122 21.3862595,23.3518575 18.6178117,23.9747583 C17.9488853,24.098605 17.2702124,24.1623029 16.5899237,24.1650891 C14.814737,24.1532839 13.0873829,23.5883859 11.6482443,22.5490076 C10.60687,21.8787222 9.7624768,20.9435597 9.2016285,19.8393893 C8.86044717,19.2453513 8.62068898,18.598589 8.49221374,17.9256997 C8.16524949,16.6330695 8.27225094,15.268801 8.796743,14.0429517 C9.11747454,13.2479901 9.57416676,12.5149405 10.1463613,11.8766412 C11.0172337,10.8621635 12.1494682,10.1057447 13.4200509,9.68956743 C15.6417303,8.93170483 17.6834606,9.09089059 19.417201,10.1636641 C19.9010204,10.4238859 20.3290056,10.7766209 20.6768448,11.2018321 C20.9993205,11.5607002 21.250635,11.9776004 21.4174046,12.4303308 C21.6377624,12.9471336 21.7845359,13.4922926 21.8534351,14.0498728 C21.8534351,14.0291094 21.8292112,14.0498728 21.815369,14.0498728 C21.6384553,13.6429622 21.4338006,13.2486839 21.2028499,12.8698219 C20.9184534,12.4061359 20.5457291,12.0028413 20.1058524,11.6828499 C19.7567714,11.4035384 19.3654433,11.1815911 18.9465649,11.0253435 C18.0257056,10.6835747 17.0449052,10.5328634 16.0639186,10.5823919 C15.570817,10.6016952 15.0817561,10.6795267 14.6070229,10.8142494 C13.9259498,11.0184384 13.2854737,11.3392618 12.7140967,11.7624427 C12.2352035,12.1371297 11.8152588,12.5815712 11.4682952,13.080916 C9.09435115,16.2231043 10.5754707,20.7668193 14.4928244,22.1510433 C16.6937405,22.9262087 18.5624427,22.7081934 20.8048855,21.704631 C21.6631043,21.3239695 22.1233588,20.9917557 22.9677354,20.541883 C23.8847837,20.0470229 24.3519593,19.7874809 25.320916,19.2822392 C28.4008142,17.6419338 30.9720102,16.5380153 34.0138422,17.9464631 L34.0138422,16.5622392 C33.1813148,16.2265146 32.2950783,16.0436404 31.397659,16.0223919 C29.4043766,15.9670229 28.2208651,16.5518575 26.3556234,17.3650891 C25.7154198,17.6419338 25.3693639,17.8495674 24.7533842,18.1610178 C20.9363868,20.0712468 18.7873791,21.6700254 15.7420865,20.7633588 C14.3921579,20.3971475 13.2536941,19.4891318 12.5964377,18.2544529 C12.3747295,17.7691672 12.2377874,17.2494895 12.1915522,16.7179644 C12.1331765,16.0437829 12.2524915,15.3660739 12.5376081,14.7523664 C13.5425998,12.489396 16.1873656,11.4639692 18.4551654,12.4580153 C18.6283576,12.542166 18.7871889,12.6531143 18.9258015,12.7867684 C19.1827271,13.0130887 19.3850424,13.2946738 19.5175573,13.6103817 C19.5175573,13.6103817 19.5175573,13.6346056 19.4656489,13.5896183 C19.2855643,13.3468481 19.0476485,13.1529467 18.7735369,13.0255471 C17.9017693,12.5739403 16.8680931,12.559833 15.9843257,12.9874809 C15.5321694,13.1594812 15.12339,13.4288503 14.786972,13.7764885 C14.5283294,14.0526396 14.306193,14.3608393 14.1260051,14.6935369 C13.8715721,15.1591316 13.7517489,15.6863537 13.7799491,16.2161832 C13.7933968,17.0857524 14.169808,17.9100929 14.818117,18.489771 C15.5293822,19.116879 16.4601207,19.4366648 17.4066158,19.3791349 C18.9777099,19.3791349 20.8118066,18.4274809 21.2478372,18.199084 C22.4659542,17.5692621 23.6217812,16.9463613 25.2274809,16.2265649 C26.3219881,15.6736956 27.4596486,15.2107615 28.6292112,14.842341 C29.1033079,14.7073791 29.5912468,14.5862595 29.8542494,14.5343511 C31.247266,14.2797157 32.683414,14.4113626 34.0069211,14.9150127 L34.0069211,0 L0,0 L0,18.5105344 C0.862302596,18.3153837 1.65896697,17.8991623 2.31165394,17.302799 Z" id="Path" fill="#00929F"></path>
                    <path d="M33.6124173,22.4936387 C33.0371009,21.9750755 32.307864,21.6590729 31.5360814,21.5938931 C29.1136896,21.4001018 26.8920102,23.237659 24.1581679,24.7672265 C23.1342406,25.3898997 22.0600303,25.9258473 20.9467684,26.3694656 C18.953486,27.1065649 17.6592366,27.5218321 15.4894656,27.4526209 C12.6829517,27.3695674 11.0737913,26.822799 8.67216285,25.1582697 C7.81617092,24.5320084 7.06609664,23.7725874 6.45048346,22.9089059 C5.58495686,21.8044285 4.96232522,20.5296845 4.62330789,19.1680407 C4.4961826,18.7240425 4.39906771,18.2719958 4.33262087,17.8149618 C4.30147583,17.6073282 4.30839695,17.4862087 4.26687023,17.2820356 C4.24956743,17.1782188 4.23572519,16.9844275 4.20458015,17.012112 C3.26676845,17.884173 2.79267176,18.2440712 1.68183206,18.5624427 C1.14183317,18.7482763 0.569174697,18.8201532 0,18.7735369 L0,34 L34.0138422,34 L34.0138422,22.9089059 C33.8942912,22.7573783 33.7598064,22.6182561 33.6124173,22.4936387 Z" id="Path" fill="#00929F"></path>
                    <path d="M46.1950127,12.3161323 L46.1950127,12.2676845 C46.1950127,7.15989822 50.1815776,3.34636132 55.2893639,3.34636132 C59.0544529,3.34636132 61.5945038,5.18045802 63.0375573,7.79318066 L58.3208142,10.5616285 C57.6840712,9.33659033 56.7808651,8.48529262 55.2063104,8.48529262 C53.2753181,8.48529262 52.0018321,10.1740458 52.0018321,12.2261578 L52.0018321,12.2746056 C52.0018321,14.4997455 53.3237659,16.0639186 55.2063104,16.0639186 C56.8189313,16.0639186 57.7221374,15.1814758 58.4315522,13.9114504 L63.1482952,16.5760814 C61.7052417,19.1195929 59.3105344,21.1959288 55.0575064,21.1959288 C50.3269211,21.1890076 46.1950127,17.6211705 46.1950127,12.3161323 Z" id="Path" fill="#231F20"></path>
                    <path d="M63.5289567,12.3161323 L63.5289567,12.2676845 C63.5289567,7.30524173 67.6089567,3.34636132 72.8724682,3.34636132 C78.1359796,3.34636132 82.2021374,7.26717557 82.2021374,12.2192366 L82.2021374,12.2676845 C82.2021374,17.2301272 78.1186768,21.1890076 72.858626,21.1890076 C67.5985751,21.1890076 63.5289567,17.2785751 63.5289567,12.3161323 Z M76.4333842,12.3161323 L76.4333842,12.2676845 C76.4333842,10.2397964 75.0491603,8.40569975 72.8413232,8.40569975 C70.633486,8.40569975 69.2977099,10.2155725 69.2977099,12.2123155 L69.2977099,12.2607634 C69.2977099,14.2886514 70.6819338,16.1227481 72.889771,16.1227481 C75.0976081,16.1227481 76.4333842,14.3197964 76.4333842,12.3161323 Z" id="Shape" fill="#231F20"></path>
                    <path d="M87.8013232,3.58860051 L93.4697201,3.58860051 L100.681527,20.8221883 L94.4732824,20.8221883 L93.5700763,18.5243766 L87.5798473,18.5243766 L86.7008651,20.8221883 L80.5895165,20.8221883 L87.8013232,3.58860051 Z M92.1512468,14.4686005 L90.5870738,10.3159288 L89.0229008,14.4686005 L92.1512468,14.4686005 Z" id="Shape" fill="#231F20"></path>
                    <path d="M100.048244,18.2544529 L103.103919,14.613944 C104.824631,15.921664 106.92948,16.6236859 109.090687,16.610687 C110.128855,16.610687 110.557964,16.3442239 110.557964,15.8770483 L110.557964,15.8286005 C110.557964,15.3406616 110.021578,15.0707379 108.187481,14.7039186 C104.34972,13.9218321 100.975674,12.821374 100.975674,9.20508906 L100.975674,9.15664122 C100.975674,5.90717557 103.519186,3.38788804 108.24285,3.38788804 C111.544224,3.38788804 113.987379,4.16997455 115.966819,5.73414758 L113.198372,9.59613232 C111.701506,8.52038978 109.909561,7.93193576 108.066361,7.91083969 C107.208142,7.91083969 106.817099,8.20152672 106.817099,8.62025445 L106.817099,8.66870229 C106.817099,9.1324173 107.284275,9.42656489 109.090687,9.76916031 C113.468295,10.5754707 116.399389,11.8454962 116.399389,15.306056 L116.399389,15.3545038 C116.399389,18.9465649 113.444071,21.1474809 108.848448,21.1474809 C105.353282,21.1405598 102.224936,20.1612214 100.048244,18.2544529 Z" id="Path" fill="#231F20"></path>
                    <polygon id="Path" fill="#231F20" points="121.680204 8.55104326 116.645089 8.55104326 116.645089 3.70625954 132.435623 3.70625954 132.435623 8.55104326 127.400509 8.55104326 127.400509 20.8221883 121.680204 20.8221883"></polygon>
                    <path d="M136.446412,3.58860051 L142.11827,3.58860051 L149.326616,20.8221883 L143.118372,20.8221883 L142.229008,18.5243766 L136.224936,18.5243766 L135.345954,20.8221883 L129.234606,20.8221883 L136.446412,3.58860051 Z M140.796336,14.4686005 L139.232163,10.3159288 L137.66799,14.4686005 L140.796336,14.4686005 Z" id="Shape" fill="#231F20"></path>
                    <polygon id="Path" fill="#231F20" points="150.036031 3.71318066 155.756336 3.71318066 155.756336 15.9185751 163.798677 15.9185751 163.798677 20.8221883 150.036031 20.8221883"></polygon>
                    <path d="M56.2098728,31.4149618 C54.5154505,31.3478814 53.1799181,29.9484336 53.1920636,28.2527275 C53.2042092,26.5570215 54.5596508,25.1768478 56.2548601,25.1340458 C57.1450801,25.0996943 58.0084311,25.4427727 58.6322646,26.0787786 L57.9401527,26.8677863 C57.4958128,26.3995013 56.8829383,26.1279431 56.2375573,26.1133842 C55.6829501,26.122905 55.1560868,26.3576669 54.7781477,26.763674 C54.4002086,27.1696812 54.2037266,27.7119845 54.2338931,28.2658524 C54.2338931,29.4632061 55.0748092,30.4321628 56.2375573,30.4321628 C56.8992531,30.4225969 57.5267297,30.1364675 57.9678372,29.6431552 L58.6599491,30.3352672 C58.0457158,31.0433188 57.1469011,31.4394066 56.2098728,31.4149618 Z" id="Path" fill="#939598"></path>
                    <path d="M64.1310941,31.4149618 C62.4022028,31.3921065 61.0166253,29.9767425 61.0305426,28.2477561 C61.0444599,26.5187697 62.4526421,25.1258938 64.1816774,25.1308595 C65.9107126,25.1358518 67.3108496,26.5368145 67.3148092,28.2658524 C67.3323175,29.1123494 67.0013553,29.9288786 66.399401,30.52429 C65.7974467,31.1197013 64.9773492,31.4417202 64.1310941,31.4149618 Z M64.1310941,26.1133832 C63.5695987,26.1136593 63.0327403,26.3439992 62.6456326,26.7507238 C62.258525,27.1574484 62.0549834,27.7050287 62.0824427,28.2658524 C62.0578886,28.8319484 62.2657564,29.3834881 62.6578379,29.7925598 C63.0499194,30.2016316 63.5921506,30.4326951 64.1587786,30.4321638 C64.7193297,30.4308549 65.2550328,30.2006808 65.6418165,29.7949499 C66.0286002,29.389219 66.2329112,28.8431284 66.20743,28.2831552 C66.2329569,27.7164734 66.0255225,27.1640208 65.633333,26.7541828 C65.2411434,26.3443447 64.6983503,26.1128096 64.1310941,26.1133832 L64.1310941,26.1133832 Z" id="Shape" fill="#939598"></path>
                    <polygon id="Path" fill="#939598" points="73.0178117 29.8161832 72.9832061 29.8161832 71.0833588 26.9716031 71.0833588 31.311145 70.0451908 31.311145 70.0451908 25.2378626 71.183715 25.2378626 73.0178117 28.1066667 74.8657506 25.2378626 76.0008142 25.2378626 76.0008142 31.311145 74.9349618 31.311145 74.9349618 26.9543003"></polygon>
                    <polygon id="Path" fill="#939598" points="82.0948601 29.8161832 82.0602545 29.8161832 80.1604071 26.9716031 80.1604071 31.311145 79.1222392 31.311145 79.1222392 25.2378626 80.2573028 25.2378626 82.1052417 28.1066667 83.9531807 25.2378626 85.0917048 25.2378626 85.0917048 31.311145 84.0223919 31.311145 84.0223919 26.9543003"></polygon>
                    <path d="M93.3139949,28.6811196 C93.3139949,30.4944529 92.275827,31.4045802 90.7012723,31.4045802 C89.1267176,31.4045802 88.1162341,30.4944529 88.1162341,28.733028 L88.1162341,25.2378626 L89.1820865,25.2378626 L89.1820865,28.6984224 C89.1820865,29.8265649 89.7634606,30.4287023 90.7185751,30.4287023 C91.6736896,30.4287023 92.2446819,29.8542494 92.2446819,28.7364885 L92.2446819,25.2378626 L93.3139949,25.2378626 L93.3139949,28.6811196 Z" id="Path" fill="#939598"></path>
                    <polygon id="Path" fill="#939598" points="100.460051 25.2378626 101.498219 25.2378626 101.498219 31.311145 100.601934 31.311145 97.2694148 26.9923664 97.2694148 31.311145 96.2312468 31.311145 96.2312468 25.2378626 97.2209669 25.2378626 100.473893 29.4355216"></polygon>
                    <polygon id="Path" fill="#939598" points="105.83084 25.2378626 105.83084 31.311145 104.764987 31.311145 104.764987 25.2378626"></polygon>
                    <polygon id="Path" fill="#939598" points="111.46117 31.311145 110.391858 31.311145 110.391858 26.2241221 108.464326 26.2241221 108.464326 25.2378626 113.392163 25.2378626 113.392163 26.2241221 111.468092 26.2241221"></polygon>
                    <polygon id="Path" fill="#939598" points="118.731807 31.311145 117.659033 31.311145 117.659033 28.9164377 115.236641 25.2378626 116.492824 25.2378626 118.19542 27.9267176 119.9257 25.2378626 121.150738 25.2378626 118.728346 28.8887532"></polygon>
                    <path d="M130.355827,26.7881934 C130.370978,27.3771597 130.027409,27.9164662 129.487226,28.1516539 C130.200102,28.3938931 130.691501,28.8022392 130.691501,29.6362341 C130.691501,30.729771 129.798677,31.311145 128.445598,31.311145 L125.635623,31.311145 L125.635623,25.2378626 L128.359084,25.2378626 C129.584122,25.2378626 130.355827,25.8365394 130.355827,26.7881934 Z M129.286514,26.9612214 C129.286514,26.4698219 128.905852,26.1825954 128.220662,26.1825954 L126.684173,26.1825954 L126.684173,27.7952163 L128.141069,27.7952163 C128.82626,27.7952163 129.286514,27.5252926 129.286514,26.9612214 Z M129.63257,29.5220356 C129.63257,29.0029517 129.224224,28.6984224 128.383308,28.6984224 L126.691094,28.6984224 L126.691094,30.3629517 L128.462901,30.3629517 C129.182697,30.3629517 129.625649,30.0791858 129.625649,29.5220356 L129.63257,29.5220356 Z" id="Shape" fill="#939598"></path>
                    <path d="M138.962239,31.311145 L137.834097,31.311145 L137.218117,29.8438677 L134.345852,29.8438677 L133.719491,31.311145 L132.625954,31.311145 L135.307888,25.1928753 L136.294148,25.1928753 L138.962239,31.311145 Z M135.775064,26.4663613 L134.736896,28.8887532 L136.813232,28.8887532 L135.775064,26.4663613 Z" id="Shape" fill="#939598"></path>
                    <polygon id="Path" fill="#939598" points="145.596132 25.2378626 146.6343 25.2378626 146.6343 31.311145 145.741476 31.311145 142.405496 26.9923664 142.405496 31.311145 141.367328 31.311145 141.367328 25.2378626 142.357048 25.2378626 145.609975 29.4355216"></polygon>
                    <polygon id="Path" fill="#939598" points="155.216489 31.311145 153.9257 31.311145 151.849364 28.5773028 150.904631 29.5497201 150.904631 31.311145 149.842239 31.311145 149.842239 25.2378626 150.908092 25.2378626 150.908092 28.2900763 153.797659 25.2378626 155.109211 25.2378626 152.583003 27.8471247"></polygon>
                    <path d="M158.818931,25.1340458 C159.911927,25.1682235 160.773314,26.0766037 160.74944,27.1698728 C160.725565,28.2631419 159.825344,29.1330527 158.731898,29.1194834 C157.638453,29.1059142 156.760096,28.213932 156.76335,27.1204071 C156.768801,26.5850324 156.987917,26.0740217 157.371987,25.7009992 C157.756057,25.3279767 158.273244,25.123864 158.80855,25.1340458 L158.818931,25.1340458 Z M158.794707,25.5320102 C157.947115,25.5775576 157.285111,26.2814531 157.29159,27.1302435 C157.298069,27.9790339 157.970743,28.672741 158.818931,28.7053435 C159.23261,28.7048305 159.628104,28.5352593 159.913677,28.2359632 C160.19925,27.9366671 160.350086,27.5336543 160.331196,27.1204071 C160.346194,26.7055153 160.192278,26.3022808 159.904642,26.0029049 C159.617007,25.7035291 159.220249,25.5336135 158.805089,25.5320102 L158.794707,25.5320102 Z M158.493639,28.1481934 L158.033384,28.1481934 L158.033384,26.1756743 C158.28515,26.1253175 158.541424,26.1009657 158.798168,26.1030025 C159.03963,26.0788858 159.282417,26.1335128 159.49028,26.2587277 C159.615764,26.3641241 159.686972,26.5205285 159.684071,26.6843766 C159.670825,26.9170691 159.50114,27.1109953 159.272265,27.1550127 L159.272265,27.1792366 C159.469865,27.262404 159.603735,27.4498225 159.618321,27.663715 C159.634961,27.8330916 159.684322,27.9976275 159.763664,28.1481934 L159.268804,28.1481934 C159.191224,28.0007043 159.137496,27.8418573 159.109618,27.6775573 C159.075013,27.459542 158.953893,27.3626463 158.697812,27.3626463 L158.493639,27.3626463 L158.493639,28.1481934 Z M158.493639,27.0338931 L158.708193,27.0338931 C158.964275,27.0338931 159.171908,26.9508397 159.171908,26.7432061 C159.171908,26.5355725 159.036947,26.4421374 158.74626,26.4421374 C158.661363,26.4393762 158.576463,26.4475173 158.493639,26.4663613 L158.493639,27.0338931 Z" id="Shape" fill="#939598"></path>
                </g>
                <line x1="185.5" y1="1" x2="185.5" y2="34" id="Line-12" stroke="#B4BFD6" stroke-linecap="square"></line>
                <g id="DIN_text" transform="translate(206.000000, 0.000000)" fill="#000000" fill-rule="nonzero">
                    <polygon id="Path" points="8.20507188 1.4380169 4.82623497 1.4380169 4.82623497 10.991276 3.38319004 10.991276 3.38319004 1.4380169 0.00435312761 1.4380169 0.00435312761 0.2262614 8.20507188 0.2262614"></polygon>
                    <path d="M9.49224785,0 L10.7844518,0 L10.7844518,4.83696594 C11.1662932,3.81101889 12.1759015,3.1570216 13.2682992,3.22799598 C13.9799012,3.18777017 14.669597,3.4814951 15.1336988,4.02242489 C15.6018342,4.68388177 15.8273814,5.48661644 15.7722587,6.29509496 L15.7722587,11.0113881 L14.4800547,11.0113881 L14.4800547,6.38559952 C14.5196132,5.84966043 14.3721287,5.31658392 14.0627281,4.87719018 C13.7522011,4.52776003 13.297211,4.34204981 12.8308605,4.37438707 C12.2418198,4.34703853 11.6772828,4.61237092 11.3224512,5.08333946 C10.9223628,5.67431024 10.7328538,6.382755 10.7844518,7.09455191 L10.7844518,11.0516124 L9.49224785,11.0516124 L9.49224785,0 Z" id="Path"></path>
                    <path d="M23.8070524,7.58227093 L18.4220311,7.58227093 C18.4030633,8.23306699 18.6271235,8.86760527 19.050535,9.36219394 C19.4668428,9.82233046 20.0644541,10.0760854 20.6846451,10.0560622 C21.1280518,10.0702803 21.5640216,9.93966582 21.9265688,9.68398793 C22.285076,9.41482438 22.5533514,9.04309639 22.6958576,8.61804534 L23.7618002,9.08565223 C23.535878,9.72318691 23.1133269,10.2725033 22.5550727,10.6543979 C21.9680245,11.0256743 21.283408,11.2130246 20.5891125,11.1923973 C19.6343623,11.2480966 18.7035881,10.8802016 18.0449288,10.186791 C17.3900545,9.37701249 17.0650276,8.34985578 17.1348551,7.31075725 C17.0693534,6.23817936 17.3924348,5.17790144 18.0449288,4.32410676 C18.6738717,3.59928067 19.6003599,3.20274375 20.5589443,3.2481081 C21.443239,3.19335364 22.309856,3.51263359 22.9472591,4.12801355 C23.5555778,4.83816144 23.8591274,5.75965121 23.7919683,6.69230942 L23.8070524,7.58227093 Z M22.4997643,6.3654874 C22.5416802,5.79564978 22.3615023,5.23169283 21.9969612,4.79171366 C21.6160903,4.40844332 21.0880823,4.20860696 20.5488883,4.24365826 C19.9724996,4.21634935 19.4121463,4.43792694 19.0103108,4.85205003 C18.6148803,5.32270809 18.4055972,5.92193722 18.4220311,6.53644045 L22.4997643,6.53644045 L22.4997643,6.3654874 Z" id="Shape"></path>
                    <path d="M29.1116253,0.2262614 L32.6312471,0.2262614 C33.5735171,0.207212005 34.5038214,0.4397881 35.3262717,0.90001757 C36.0911934,1.34478698 36.7110996,2.0013637 37.1112228,2.79055727 C37.5489618,3.65960449 37.7648786,4.62345719 37.7397267,5.59619863 C37.7577558,6.56236506 37.5403188,7.51839774 37.1061947,8.38172787 C36.7033798,9.18011989 36.0805314,9.84658513 35.3111876,10.3024358 C34.4872907,10.774283 33.550288,11.0124451 32.6010789,10.991276 L29.0814571,10.991276 L29.1116253,0.2262614 Z M32.5809667,9.77952052 C33.2721455,9.79604206 33.9521764,9.60324979 34.5318428,9.2264371 C35.0854521,8.85305627 35.5214219,8.32989246 35.7888506,7.71802777 C36.079288,7.04910443 36.2216498,6.3252891 36.2061772,5.59619863 C36.2208819,4.85529329 36.0768729,4.1198189 35.7838226,3.43917328 C35.5206821,2.84139441 35.0913576,2.33178968 34.5469269,1.9709882 C33.9627777,1.60630525 33.2844796,1.420997 32.5960508,1.4380169 L30.5345581,1.4380169 L30.5345581,9.77952052 L32.5809667,9.77952052 Z" id="Shape"></path>
                    <path d="M39.253164,0.377102334 L40.7314052,0.377102334 L40.7314052,2.01121245 L39.253164,2.01121245 L39.253164,0.377102334 Z M39.3436686,3.393921 L40.6308446,3.393921 L40.6308446,10.991276 L39.3436686,10.991276 L39.3436686,3.393921 Z" id="Shape"></path>
                    <path d="M47.6650601,4.02242489 C48.1362695,4.49628374 48.3894129,5.14462219 48.3639564,5.81240397 C48.3720436,6.2776389 48.2538862,6.73636761 48.0220503,7.13980419 C47.7884563,7.52538582 47.4525493,7.83866694 47.0516403,8.04484979 C46.5870915,8.28796146 46.0672024,8.40580299 45.543231,8.3867559 C45.0441779,8.38321564 44.5524557,8.26630268 44.1052141,8.04484979 C43.950127,8.10903553 43.8135725,8.21101927 43.7079996,8.34150362 C43.6080575,8.46904751 43.5548223,8.62697863 43.5571587,8.78899839 C43.555426,9.01320065 43.6670059,9.2231222 43.8538125,9.34710985 C44.147046,9.51331725 44.4830803,9.58857494 44.8191945,9.56331519 L46.6644819,9.56331519 C47.3517987,9.51224553 48.0347502,9.70839345 48.5902178,10.1163986 C49.0394258,10.5161892 49.2803587,11.0999882 49.2438619,11.7002284 C49.263034,12.4092881 48.9127609,13.0774723 48.3187041,13.4650673 C47.4584524,13.9567875 46.4711295,14.1808607 45.4828946,14.1086553 C44.252703,14.1086553 43.3761496,13.9175901 42.8532343,13.5354598 C42.3556416,13.1963088 42.0625969,12.6291255 42.0738895,12.0270504 C42.0658318,11.6800204 42.1777111,11.3408306 42.3906555,11.0666965 C42.6247155,10.7734997 42.9419522,10.557919 43.3007291,10.4482487 C42.754049,10.2448112 42.3993767,9.71381611 42.4208236,9.13090451 C42.4135193,8.79492989 42.5139523,8.46543897 42.7074214,8.19066269 C42.9109394,7.934329 43.1855222,7.74369508 43.4968223,7.6426073 C42.9932224,7.1614994 42.7188454,6.48836123 42.7426176,5.79229185 C42.7171824,5.09886671 42.9920607,4.42816382 43.4968223,3.95203246 C44.0602752,3.44600403 44.8021853,3.18543074 45.5583151,3.22799598 C46.0789111,3.22054893 46.5944906,3.33053921 47.0667244,3.54978997 C47.1703967,3.15903897 47.3894209,2.80860035 47.6952283,2.54418375 C48.0275786,2.27738017 48.4460922,2.14145268 48.8717876,2.16205338 C49.0412225,2.1615774 49.2100788,2.18184016 49.3745907,2.22238975 L49.3745907,3.34866872 C49.1955443,3.31368704 49.0139216,3.29350674 48.8315633,3.28833235 C48.3191689,3.23128936 47.8353103,3.53578657 47.6650601,4.02242489 Z M44.7538301,10.7197623 C44.5879051,10.7197623 44.3767277,10.7197623 44.1152701,10.6895942 C43.8722217,10.7971314 43.6647227,10.9715004 43.5169344,11.1923973 C43.3816784,11.3834212 43.3095933,11.6119838 43.3107851,11.8460413 C43.2962312,12.2568436 43.5331678,12.6351457 43.9091208,12.8013672 C44.4500254,13.0185126 45.0314478,13.1162739 45.6136234,13.087965 C46.2351829,13.1397846 46.8591339,13.0215989 47.4186866,12.7460589 C47.7382375,12.5532376 47.9300835,12.2040779 47.9214897,11.8309572 C47.937468,11.5106913 47.7873614,11.2047778 47.5242752,11.0214442 C47.1688458,10.8080515 46.7561568,10.7097086 46.3426879,10.7398745 L44.7538301,10.7197623 Z M46.6946501,6.948739 C46.9882876,6.64276201 47.1460118,6.23122855 47.1320888,5.80737594 C47.1652594,5.21748822 46.8694088,4.65764541 46.3633647,4.35270737 C45.8573206,4.04776932 45.2241133,4.04776932 44.7180692,4.35270737 C44.2120251,4.65764541 43.9161745,5.21748822 43.9493451,5.80737594 C43.932672,6.23467288 44.090596,6.65035795 44.3867838,6.95879507 C45.0390794,7.55880006 46.0423545,7.55880006 46.6946501,6.95879507 L46.6946501,6.948739 Z" id="Shape"></path>
                    <path d="M50.4707015,0.377102334 L51.9439146,0.377102334 L51.9439146,2.01121245 L50.4707015,2.01121245 L50.4707015,0.377102334 Z M50.561206,3.393921 L51.848382,3.393921 L51.848382,10.991276 L50.561206,10.991276 L50.561206,3.393921 Z" id="Shape"></path>
                    <path d="M52.989745,3.4090051 L54.3975938,3.4090051 L54.3975938,1.42796084 L55.6847697,0.879905446 L55.6847697,3.393921 L57.5803375,3.393921 L57.5803375,4.46991966 L55.6847697,4.46991966 L55.6847697,8.67335368 C55.6549337,9.01043724 55.7497479,9.34675915 55.9512554,9.61862353 C56.1758751,9.83299143 56.4815055,9.94096867 56.7909366,9.91527736 C57.057251,9.91050081 57.3221295,9.8750712 57.5803375,9.80968871 L57.5803375,10.991276 C57.2143392,11.0864631 56.8372259,11.1321225 56.4590865,11.1270329 C55.8540743,11.1950279 55.2538251,10.9643071 54.8501166,10.508585 C54.5159178,9.97387906 54.3576634,9.34789515 54.3975938,8.71860596 L54.3975938,4.46991966 L52.989745,4.46991966 L52.989745,3.4090051 Z" id="Path"></path>
                    <path d="M58.963046,10.5588653 C58.493293,10.1555358 58.2354896,9.5583223 58.2641497,8.93983933 C58.2522235,8.18948941 58.6674346,7.49747106 59.3351203,7.15488828 C59.6576653,7.00159209 59.9944833,6.88033759 60.3407265,6.79287004 C60.8369724,6.67250607 61.3409931,6.58682256 61.8491359,6.53644045 L63.2569846,6.3654874 L63.2569846,6.24481465 C63.3059758,5.71167635 63.1672629,5.17816507 62.8647982,4.73640531 C62.5262282,4.4048764 62.0597499,4.23775231 61.5876783,4.27885448 C61.1441464,4.25849499 60.7082721,4.39961824 60.3608387,4.67606894 C60.0455723,4.95799615 59.863148,5.35932952 59.8580356,5.78223579 L58.475327,5.78223579 C58.4983695,5.05676273 58.8338418,4.37665226 59.3954567,3.91683624 C60.0141218,3.43444786 60.78368,3.18683539 61.5675661,3.21793992 C62.4042069,3.14070013 63.2351575,3.41586139 63.8603483,3.97717261 C64.3363353,4.47997573 64.5743287,5.28110868 64.5743287,6.38057149 L64.5743287,8.42698015 C64.542835,9.28971189 64.6308213,10.1526538 64.8357864,10.991276 L63.483246,10.991276 C63.4229096,10.5337252 63.3776573,10.0711463 63.3625732,9.6135955 C63.1957678,10.0942662 62.8621761,10.4992144 62.4223314,10.7549586 C61.9371288,11.0410786 61.3815127,11.1856432 60.8183895,11.1722851 C60.1453101,11.2046797 59.4841647,10.9860896 58.963046,10.5588653 L58.963046,10.5588653 Z M62.6988731,9.44767047 C63.117035,8.95776051 63.3312086,8.32603848 63.2972088,7.68283155 L63.2972088,7.30070118 L61.2357161,7.60741108 C60.7989702,7.64478636 60.3787217,7.79178686 60.0139045,8.03479373 C59.7538783,8.24887459 59.61033,8.57325658 59.6267461,8.90967114 C59.6119495,9.24940117 59.7593717,9.57596917 60.0239606,9.78957659 C60.34018,10.0179584 60.7256862,10.1298796 61.1150433,10.1063425 C61.7134214,10.1319792 62.2927432,9.892894 62.6988731,9.4526985 L62.6988731,9.44767047 Z" id="Shape"></path>
                    <polygon id="Path" points="68.0285861 10.991276 66.7363821 10.991276 66.7363821 0 68.0285861 0"></polygon>
                    <polygon id="Path" points="74.0169712 10.991276 74.0169712 0.2262614 75.4549881 0.2262614 75.4549881 10.991276"></polygon>
                    <path d="M77.8784991,3.4090051 L79.0952826,3.4090051 L79.0952826,4.91741443 C79.4813053,3.87171911 80.4953712,3.192295 81.6092982,3.23302401 C82.3347547,3.18184887 83.0421718,3.47412385 83.51995,4.02242489 C83.9892075,4.68524908 84.21481,5.48995708 84.1585099,6.30012299 L84.1585099,11.0164162 L82.866306,11.0164162 L82.866306,6.3504033 C82.866306,5.009595 82.3115465,4.33919085 81.2020277,4.33919085 C80.6098715,4.31353671 80.0439884,4.58516062 79.6936183,5.06322734 C79.3081709,5.64710757 79.124509,6.3411376 79.1707031,7.03924357 L79.1707031,10.9963041 L77.8784991,10.9963041 L77.8784991,3.4090051 Z" id="Path"></path>
                    <path d="M84.9127146,3.4090051 L86.3205633,3.4090051 L86.3205633,1.42796084 L87.6127673,0.879905446 L87.6127673,3.393921 L89.503307,3.393921 L89.503307,4.46991966 L87.6077393,4.46991966 L87.6077393,8.67335368 C87.5779033,9.01043724 87.6727174,9.34675915 87.8742249,9.61862353 C88.0981441,9.83412927 88.4043054,9.94229406 88.7139061,9.91527736 C88.9801872,9.91006176 89.2450159,9.87463881 89.503307,9.80968871 L89.503307,10.991276 C89.1373088,11.0864631 88.7601955,11.1321225 88.3820561,11.1270329 C87.7769325,11.1958984 87.1762942,10.965028 86.7730861,10.508585 C86.4386852,9.97379008 86.2787916,9.34827216 86.3155353,8.71860596 L86.3155353,4.46991966 L84.9076866,4.46991966 L84.9127146,3.4090051 Z" id="Path"></path>
                    <path d="M96.8593166,7.58227093 L91.4793233,7.58227093 C91.4579032,8.2334482 91.6822677,8.86884842 92.1078271,9.36219394 C92.5221708,9.82210956 93.1181955,10.075972 93.7369092,10.0560622 C94.1806051,10.0725229 94.6172772,9.94169802 94.9788329,9.68398793 C95.3403624,9.41670431 95.6107378,9.04449925 95.7531497,8.61804534 L96.8140643,9.08565223 C96.5919734,9.72384121 96.1707036,10.2737834 95.6123648,10.6543979 C95.0253167,11.0256743 94.3407001,11.2130246 93.6464047,11.1923973 C92.6902704,11.2475237 91.7581894,10.8798389 91.0971929,10.186791 C90.4458893,9.37533365 90.1229046,8.34896 90.1921473,7.31075725 C90.1266456,6.23817936 90.4497269,5.17790144 91.1022209,4.32410676 C92.4297346,2.95279905 94.5974505,2.85787871 96.0397475,4.10790142 C96.6443351,4.81990003 96.9457856,5.74049723 96.8794287,6.67219729 L96.8593166,7.58227093 Z M95.5369444,6.3654874 C95.5788602,5.79564978 95.3986823,5.23169283 95.0341413,4.79171366 C94.6529041,4.40900865 94.1251625,4.20927311 93.5860683,4.24365826 C93.0096796,4.21634935 92.4493263,4.43792694 92.0474908,4.85205003 C91.6592949,5.32558631 91.4572664,5.92452044 91.4793233,6.53644045 L95.5369444,6.53644045 L95.5369444,6.3654874 Z" id="Shape"></path>
                    <path d="M100.615256,3.76096728 C101.003924,3.4111159 101.510278,3.2207843 102.033161,3.22799598 C102.123596,3.22299498 102.214239,3.22299498 102.304674,3.22799598 L102.304674,4.52522801 L102.244338,4.52522801 C101.157853,4.43369297 100.173906,5.16733749 99.9515557,6.23475859 C99.8563174,6.74027986 99.8108479,7.25391759 99.8157988,7.76830808 L99.8157988,11.0113881 L98.553763,11.0113881 L98.553763,3.4090051 L99.7504344,3.4090051 L99.7504344,5.1386478 C99.9140875,4.61206975 100.212158,4.13723682 100.615256,3.76096728 L100.615256,3.76096728 Z" id="Path"></path>
                    <path d="M105.73882,10.7700427 C105.325075,10.5124019 104.999034,10.135526 104.803606,9.68901596 L104.5874,10.991276 L103.581794,10.991276 L103.581794,0 L104.86897,0 L104.86897,4.73137728 C105.079819,4.29191939 105.404471,3.91692044 105.809212,3.64532256 C106.759108,3.0580392 107.967663,3.09364311 108.881339,3.73582712 C109.361319,4.09948421 109.73186,4.58832055 109.95231,5.14870386 C110.213055,5.80067106 110.341252,6.49806575 110.329412,7.20014056 C110.342282,7.90977569 110.210554,8.61460319 109.942254,9.27168938 C109.71581,9.83150095 109.338018,10.3172347 108.851171,10.6745101 C108.371089,11.0138328 107.794759,11.1900804 107.207005,11.1773132 C106.688254,11.1885169 106.177668,11.0468816 105.73882,10.7700427 Z M108.413732,9.26163332 C108.81655,8.64858582 109.012165,7.92252144 108.971844,7.1900845 C109.011714,6.46137425 108.821771,5.73853887 108.428816,5.12356371 C108.072022,4.65647026 107.521443,4.37789734 106.933768,4.36712329 C106.346093,4.35634924 105.785673,4.61455387 105.411997,5.06825537 C105.012061,5.64517088 104.814075,6.33812247 104.848858,7.03924357 L104.848858,7.43142999 C104.813661,8.10926656 105.004675,8.77958664 105.391885,9.33705379 C105.735514,9.80187522 106.287578,10.0656599 106.865098,10.0409781 C107.477394,10.0647704 108.060156,9.77717332 108.413732,9.27671741 L108.413732,9.26163332 Z" id="Shape"></path>
                    <path d="M111.94341,10.5588653 C111.478601,10.1523132 111.223383,9.55680598 111.249542,8.93983933 C111.243874,8.57468887 111.337735,8.2148861 111.521055,7.89903689 C111.712136,7.58295224 111.984819,7.32416404 112.310456,7.14986025 C112.632695,6.99582918 112.969587,6.87454794 113.316062,6.78784201 C113.812344,6.66765238 114.316353,6.58197094 114.824472,6.53141242 L116.237348,6.36045936 L116.237348,6.23978662 C116.284448,5.70608523 116.14398,5.17266323 115.840134,4.73137728 C115.503482,4.40006983 115.038596,4.2328581 114.568042,4.27382645 C114.12451,4.25346696 113.688636,4.39459021 113.341203,4.67104091 C113.025936,4.95296812 112.843512,5.35430148 112.838399,5.77720775 L111.460719,5.77720775 C111.482513,5.05254705 111.816085,4.37257315 112.375821,3.91180821 C112.996441,3.42945511 113.767545,3.18191854 114.552958,3.21291188 C115.3814,3.13866231 116.203741,3.40974365 116.825628,3.96208852 C117.301615,4.46489163 117.539609,5.26602459 117.539609,6.3654874 L117.539609,8.41189606 C117.50647,9.27439526 117.592764,10.1373339 117.796038,10.9761919 L116.448526,10.9761919 C116.38338,10.5194895 116.343096,10.0595848 116.327853,9.5985114 C116.157955,10.0774391 115.825153,10.481429 115.387611,10.7398745 C114.900949,11.026906 114.343462,11.171504 113.778641,11.1572011 C113.114512,11.1874147 112.462111,10.9747143 111.94341,10.5588653 L111.94341,10.5588653 Z M115.684265,9.44767047 C116.100176,8.95648427 116.314037,8.32568245 116.282601,7.68283155 L116.282601,7.30070118 L114.221108,7.60741108 C113.784178,7.64392338 113.36372,7.79099715 112.999296,8.03479373 C112.73927,8.24887459 112.595722,8.57325658 112.612138,8.90967114 C112.597731,9.24823023 112.742911,9.57395475 113.004324,9.78957659 C113.32091,10.0172071 113.706143,10.129049 114.095407,10.1063425 C114.696187,10.1315068 115.277503,9.89051833 115.684265,9.44767047 L115.684265,9.44767047 Z" id="Shape"></path>
                    <path d="M119.671494,3.4090051 L120.883249,3.4090051 L120.883249,4.91741443 C121.270568,3.87274025 122.283789,3.19388179 123.397265,3.23302401 C124.114384,3.18830096 124.811423,3.48012764 125.282776,4.02242489 C125.755885,4.68340778 125.981883,5.48952802 125.921336,6.30012299 L125.921336,11.0164162 L124.63416,11.0164162 L124.63416,6.3504033 C124.63416,5.009595 124.077725,4.33919085 122.964854,4.33919085 C122.372138,4.31078828 121.805021,4.58300466 121.456445,5.06322734 C121.068925,5.64617726 120.885074,6.34092093 120.93353,7.03924357 L120.93353,10.9963041 L119.671494,10.9963041 L119.671494,3.4090051 Z" id="Path"></path>
                    <polygon id="Path" points="130.733162 7.27556103 129.350454 8.67335368 129.350454 10.991276 128.063278 10.991276 128.063278 0 129.350454 0 129.350454 7.13980419 132.744375 3.4090051 134.423737 3.4090051 131.638208 6.33531921 134.59469 10.991276 133.000804 10.991276"></polygon>
                    <path d="M139.366292,0.2262614 L141.111018,0.2262614 L145.676471,8.04484979 C145.931944,8.49081602 146.147319,8.95858323 146.320059,9.44264244 L146.350227,9.44264244 C146.320059,9.05045601 146.320059,8.58787715 146.320059,8.04484979 L146.320059,0.2262614 L147.612263,0.2262614 L147.612263,10.991276 L145.867536,10.991276 L141.292028,3.15257551 C141.030709,2.71376065 140.808615,2.25274657 140.628327,1.77489498 L140.598159,1.77489498 C140.628327,2.14696929 140.643412,2.62463224 140.643412,3.19782779 L140.643412,10.991276 L139.351208,10.991276 L139.366292,0.2262614 Z" id="Path"></path>
                    <path d="M156.029187,7.58227093 L150.649193,7.58227093 C150.625266,8.23383311 150.849945,8.87012329 151.277697,9.36219394 C151.69163,9.82268438 152.287936,10.0766664 152.906779,10.0560622 C153.350475,10.0725229 153.787147,9.94169802 154.148703,9.68398793 C154.508617,9.4151062 154.778589,9.0434569 154.92302,8.61804534 L155.983934,9.08565223 C155.758012,9.72318691 155.335461,10.2725033 154.777207,10.6543979 C154.19222,11.0261281 153.509056,11.2135604 152.816275,11.1923973 C151.86003,11.2482152 150.927668,10.8804198 150.267063,10.186791 C149.602351,9.37353814 149.270032,8.33886017 149.336877,7.29064512 C149.276308,6.21865457 149.598878,5.16005212 150.246951,4.30399464 C151.579185,2.9504736 153.733712,2.86464465 155.169393,4.10790142 C155.773981,4.81990003 156.075432,5.74049723 156.009075,6.67219729 L156.029187,7.58227093 Z M154.726927,6.3654874 C154.764194,5.79620997 154.584552,5.23393185 154.224124,4.79171366 C153.842886,4.40900865 153.315145,4.20927311 152.776051,4.24365826 C152.199002,4.21233617 151.637045,4.43454802 151.237473,4.85205003 C150.842043,5.32270809 150.63276,5.92193722 150.649193,6.53644045 L154.726927,6.53644045 L154.726927,6.3654874 Z" id="Shape"></path>
                    <path d="M156.562158,3.4090051 L157.970007,3.4090051 L157.970007,1.42796084 L159.257183,0.879905446 L159.257183,3.393921 L161.15275,3.393921 L161.15275,4.46991966 L159.257183,4.46991966 L159.257183,8.67335368 C159.227347,9.01043724 159.322161,9.34675915 159.523668,9.61862353 C159.748288,9.83299143 160.053919,9.94096867 160.36335,9.91527736 C160.629664,9.91050081 160.894543,9.8750712 161.15275,9.80968871 L161.15275,10.991276 C160.786752,11.0864631 160.409639,11.1321225 160.0315,11.1270329 C159.426487,11.1950279 158.826238,10.9643071 158.42253,10.508585 C158.088331,9.97387906 157.930076,9.34789515 157.970007,8.71860596 L157.970007,4.46991966 L156.562158,4.46991966 L156.562158,3.4090051 Z" id="Path"></path>
                    <path d="M161.906955,3.4090051 L163.239383,3.4090051 L164.607008,8.82419461 C164.6774,9.12587648 164.732709,9.42253031 164.772933,9.71918415 L164.803101,9.71918415 C164.828241,9.55325912 164.858409,9.39236213 164.898634,9.21638104 C164.938858,9.04039995 164.979082,8.89961508 164.999194,8.80911052 L166.381903,3.4090051 L167.779695,3.4090051 L169.157376,8.82419461 C169.157376,8.91469917 169.212684,9.05045601 169.257937,9.23146513 C169.303189,9.41247425 169.328329,9.55325912 169.353469,9.73426824 L169.383637,9.73426824 C169.424063,9.43301236 169.481134,9.13422537 169.55459,8.83927871 L170.917187,3.42408919 L172.249615,3.42408919 L170.112702,11.0063601 L168.704853,11.0063601 L167.261808,5.53083423 C167.186717,5.25181242 167.131273,4.96787108 167.095883,4.68109697 L167.065715,4.68109697 C167.030325,4.96787108 166.974881,5.25181242 166.89979,5.53083423 L165.456745,10.986248 L164.048896,10.986248 L161.906955,3.4090051 Z" id="Path"></path>
                    <path d="M174.477033,10.6946222 C173.934268,10.3740769 173.502632,9.89506629 173.240137,9.32196969 C172.93649,8.65678871 172.788601,7.9310998 172.807727,7.20014056 C172.789658,6.46927435 172.937499,5.74382036 173.240137,5.07831143 C173.50398,4.50610239 173.935291,4.02745338 174.477033,3.70565893 C175.63827,3.07254877 177.041567,3.07254877 178.202804,3.70565893 C178.74334,4.02892213 179.17427,4.50714936 179.4397,5.07831143 C179.742338,5.74382036 179.890179,6.46927435 179.87211,7.20014056 C179.891236,7.9310998 179.743347,8.65678871 179.4397,9.32196969 C179.17559,9.89400288 178.744344,10.3725807 178.202804,10.6946222 C177.043012,11.3333755 175.636825,11.3333755 174.477033,10.6946222 L174.477033,10.6946222 Z M177.941346,9.32196969 C178.35894,8.69678639 178.555401,7.94987967 178.499458,7.20014056 C178.553146,6.44989923 178.354968,5.70319278 177.936318,5.07831143 C177.565279,4.64822821 177.037621,4.38443216 176.470927,4.34570807 C175.904233,4.30698399 175.345595,4.49654975 174.9195,4.87216215 L174.71335,5.07831143 C174.29539,5.70368592 174.095658,6.44958629 174.145183,7.20014056 C174.094896,7.95076943 174.294693,8.69691126 174.71335,9.32196969 C175.084389,9.75205291 175.612048,10.015849 176.178742,10.054573 C176.745436,10.0932971 177.304074,9.90373138 177.730169,9.52811897 C177.796857,9.46377065 177.859017,9.3948901 177.916206,9.32196969 L177.941346,9.32196969 Z" id="Shape"></path>
                    <path d="M183.527489,3.76096728 C183.916157,3.4111159 184.422511,3.2207843 184.945394,3.22799598 C185.035829,3.22299498 185.126472,3.22299498 185.216907,3.22799598 L185.216907,4.52522801 L185.156571,4.52522801 C184.544552,4.48435735 183.942677,4.69710446 183.492293,5.11350765 C183.17706,5.4165334 182.959891,5.80708871 182.868817,6.23475859 C182.768578,6.73957671 182.723063,7.25373139 182.73306,7.76830808 L182.73306,11.0113881 L181.445884,11.0113881 L181.445884,3.4090051 L182.642555,3.4090051 L182.642555,5.1386478 C182.809727,4.60887633 183.115209,4.1332963 183.527489,3.76096728 L183.527489,3.76096728 Z" id="Path"></path>
                    <polygon id="Path" points="189.16894 7.27556103 187.791259 8.67335368 187.791259 10.991276 186.504083 10.991276 186.504083 0 187.791259 0 187.791259 7.13980419 191.18518 3.4090051 192.869571 3.4090051 190.094098 6.33531921 193.05058 10.991276 191.461722 10.991276"></polygon>
                    <polygon id="Path" points="195.242801 3.01681867 194.478541 3.01681867 194.478541 5.17887205 194.151719 5.17887205 194.151719 3.01681867 193.392486 3.01681867 193.392486 2.75033302 195.242801 2.75033302"></polygon>
                    <path d="M195.519343,2.75033302 L195.981922,2.75033302 L196.62551,4.6207606 C196.640218,4.65833946 196.651986,4.69700397 196.660706,4.73640531 C196.672571,4.77239816 196.680988,4.8094368 196.685846,4.847022 L196.685846,4.847022 C196.685846,4.80679775 196.685846,4.7665735 196.710987,4.73640531 C196.719707,4.69700397 196.731474,4.65833946 196.746183,4.6207606 L197.389771,2.75033302 L197.85235,2.75033302 L197.85235,5.17887205 L197.555696,5.17887205 L197.555696,3.30341644 C197.550689,3.2163358 197.550689,3.12903947 197.555696,3.04195883 L197.555696,3.04195883 C197.550458,3.08814889 197.540346,3.13365474 197.525528,3.17771567 C197.51512,3.2254498 197.501685,3.27247314 197.485303,3.31850054 L196.841715,5.17887205 L196.524949,5.17887205 L195.881361,3.31850054 C195.86498,3.27247314 195.851545,3.2254498 195.841137,3.17771567 C195.826319,3.13365474 195.816206,3.08814889 195.810969,3.04195883 L195.810969,3.04195883 C195.815975,3.12903947 195.815975,3.2163358 195.810969,3.30341644 L195.810969,5.17887205 L195.514315,5.17887205 L195.519343,2.75033302 Z" id="Path"></path>
                    <path d="M1.84461252,22.7015605 C1.53286705,22.8120557 1.26140206,23.0134652 1.06526769,23.2797841 C0.917548095,23.5684128 0.849837301,23.8913412 0.86917448,24.2149979 L0.86917448,24.2602501 L1.90997692,24.2602501 L1.90997692,26.17593 L0.00435312761,26.17593 L0.00435312761,24.3758949 C-0.0238514091,23.8540372 0.0853744835,23.3339139 0.321119088,22.8674855 C0.599996987,22.4620214 1.00193195,22.1570444 1.46751018,21.9976361 L1.84461252,22.7015605 Z M4.50946901,22.7015605 C4.19772354,22.8120557 3.92625855,23.0134652 3.73012419,23.2797841 C3.57652444,23.5665632 3.50518118,23.890218 3.52397491,24.2149979 L3.52397491,24.2602501 L4.57483341,24.2602501 L4.57483341,26.17593 L2.67423765,26.17593 L2.67423765,24.3758949 C2.64603311,23.8540372 2.75525901,23.3339139 2.99100361,22.8674855 C3.26882524,22.4610147 3.67113137,22.1557561 4.13739471,21.9976361 L4.50946901,22.7015605 Z" id="Shape"></path>
                    <polygon id="Path" points="14.8219608 23.4959894 11.2017784 23.4959894 11.2017784 33.7330608 9.65817287 33.7330608 9.65817287 23.4959894 6.03799047 23.4959894 6.03799047 22.1987574 14.8219608 22.1987574"></polygon>
                    <polygon id="Path" points="25.34563 33.7330608 23.8070524 33.7330608 23.8070524 28.4837963 17.9896204 28.4837963 17.9896204 33.7330608 16.4460149 33.7330608 16.4460149 22.1987574 17.9896204 22.1987574 17.9896204 27.1865643 23.8070524 27.1865643 23.8070524 22.1987574 25.34563 22.1987574"></polygon>
                    <polygon id="Path" points="35.7033741 32.4308007 35.7033741 33.7330608 28.4328411 33.7330608 28.4328411 22.1987574 35.5776733 22.1987574 35.5776733 23.4959894 29.9764466 23.4959894 29.9764466 27.151368 35.3011316 27.151368 35.3011316 28.4536281 29.9764466 28.4536281 29.9764466 32.4308007"></polygon>
                    <path d="M42.2699827,22.1987574 L44.1404103,22.1987574 L49.0276565,30.5955694 C49.309353,31.0667429 49.5499128,31.5613204 49.746665,32.0738105 L49.7818612,32.0738105 C49.751693,31.6615119 49.7315809,31.1536808 49.7315809,30.5654012 L49.7315809,22.1987574 L51.1142894,22.1987574 L51.1142894,33.7330608 L49.2388338,33.7330608 L44.3515876,25.3362488 C44.0695231,24.86603 43.8305566,24.3712684 43.6376072,23.8580077 L43.602411,23.8580077 C43.6376072,24.2552221 43.6526913,24.7630533 43.6526913,25.366417 L43.6526913,33.7330608 L42.2699827,33.7330608 L42.2699827,22.1987574 Z" id="Path"></path>
                    <polygon id="Path" points="61.4569495 32.4308007 61.4569495 33.7330608 54.1964725 33.7330608 54.1964725 22.1987574 61.3463328 22.1987574 61.3463328 23.4959894 55.73505 23.4959894 55.73505 27.151368 61.064763 27.151368 61.064763 28.4536281 55.73505 28.4536281 55.73505 32.4308007"></polygon>
                    <polygon id="Path" points="71.4627314 23.4959894 67.8375209 23.4959894 67.8375209 33.7330608 66.2939154 33.7330608 66.2939154 23.4959894 62.673733 23.4959894 62.673733 22.1987574 71.4627314 22.1987574"></polygon>
                    <path d="M72.1917959,22.1987574 L73.7655696,22.1987574 L75.7767821,31.4905589 C75.8170063,31.7168203 75.8522025,31.9279976 75.8723147,32.1240908 L75.922595,32.1240908 C75.9482103,31.909602 75.9919428,31.6976675 76.0533238,31.4905589 L78.4215264,22.1987574 L79.9500479,22.1987574 L82.3232786,31.4905589 C82.3822541,31.6982637 82.4259471,31.9100067 82.4540074,32.1240908 L82.5042877,32.1240908 C82.5042877,31.9279976 82.554568,31.7168203 82.5998203,31.4905589 L84.6110327,22.1987574 L86.1898345,22.1987574 L83.4696697,33.7330608 L81.584158,33.7330608 L79.3416561,24.7328851 C79.2948039,24.5565433 79.2628474,24.3765774 79.2461235,24.1948857 L79.1807591,24.1948857 C79.1623171,24.3767117 79.1286793,24.5566738 79.0801985,24.7328851 L76.8427247,33.7330608 L74.9220168,33.7330608 L72.1917959,22.1987574 Z" id="Path"></path>
                    <path d="M89.2569335,33.2704819 C88.4471874,32.7637651 87.8052162,32.0290842 87.4116461,31.1587088 C86.9600005,30.1561439 86.7383823,29.0652328 86.7630301,27.9659091 C86.7328438,26.8531263 86.954574,25.7479131 87.4116461,24.7328851 C87.8013781,23.8613637 88.4443508,23.1272886 89.2569335,22.62614 C90.9849507,21.6609172 93.0899187,21.6609172 94.8179359,22.62614 C95.6233497,23.1239677 96.2622498,23.8503883 96.6531673,24.7127729 C97.1102394,25.7278009 97.3319696,26.8330142 97.3017833,27.945797 C97.3322543,29.0569821 97.1104946,30.1606234 96.6531673,31.1737929 C96.2617536,32.0416047 95.6189379,32.7719974 94.8078799,33.2704819 C93.0925665,34.2431727 90.9923589,34.2431727 89.2770456,33.2704819 L89.2569335,33.2704819 Z M94.7224033,31.4503346 C95.4166377,30.4261074 95.7525304,29.200983 95.6777292,27.9659091 C95.7525304,26.7308351 95.4166377,25.5057108 94.7224033,24.4814835 C93.4818579,23.0131251 91.2926802,22.811667 89.8049889,24.0289607 C89.6394413,24.1643408 89.4878462,24.3159359 89.3524661,24.4814835 C88.6522335,25.503329 88.3125409,26.7294071 88.3870841,27.9659091 C88.3174409,29.1956071 88.6568977,30.4137619 89.3524661,31.4302225 C89.934049,32.1463957 90.7765932,32.6018526 91.694333,32.6961732 C92.6120728,32.7904938 93.5296445,32.5159328 94.2447404,31.9330256 C94.4186707,31.7910754 94.5786205,31.6328093 94.7224033,31.4603907 L94.7224033,31.4503346 Z" id="Shape"></path>
                    <path d="M103.375645,28.9413471 L101.03761,28.9413471 L101.03761,33.7330608 L99.4940049,33.7330608 L99.4940049,22.1987574 L103.767831,22.1987574 C105.155568,22.1987574 106.13771,22.5155233 106.714258,23.1490553 C107.314226,23.8127652 107.633269,24.6833743 107.604219,25.5775943 C107.61013,26.2824493 107.391788,26.9709311 106.980743,27.5435545 C106.49313,28.1717106 105.788347,28.594939 105.004727,28.7301698 L107.961209,33.7582009 L106.226539,33.7582009 L103.375645,28.9413471 Z M101.03761,27.6541711 L103.581794,27.6541711 C104.238783,27.7195306 104.894515,27.5184635 105.401941,27.0960597 C106.141666,26.226489 106.141666,24.9488118 105.401941,24.079241 C104.895672,23.6527797 104.241636,23.443199 103.581794,23.4959894 L101.032582,23.4959894 L101.03761,27.6541711 Z" id="Shape"></path>
                    <polygon id="Path" points="113.381427 27.9156288 111.676924 29.7860563 111.676924 33.7330608 110.118235 33.7330608 110.118235 22.1987574 111.66184 22.1987574 111.66184 27.9156288 116.730096 22.1987574 118.665888 22.1987574 114.427257 26.8094619 119.022878 33.7330608 117.222843 33.7330608"></polygon>
                    <path d="M120.400558,25.6731269 C120.710941,25.5626446 120.981971,25.3633067 121.179903,25.0999313 C121.326701,24.8109775 121.394359,24.4883018 121.375996,24.1647176 L121.375996,24.1345494 L120.335194,24.1345494 L120.335194,22.1987574 L122.23579,22.1987574 L122.23579,24.0038206 C122.262591,24.5255698 122.15344,25.0453366 121.919024,25.5122299 C121.640937,25.9173363 121.238532,26.2209051 120.772633,26.3770512 L120.400558,25.6731269 Z M123.065415,25.6731269 C123.37443,25.5600816 123.644788,25.3612374 123.84476,25.0999313 C123.989822,24.8105028 124.05574,24.4878512 124.035825,24.1647176 L124.035825,24.1345494 L123.00005,24.1345494 L123.00005,22.1987574 L124.900646,22.1987574 L124.900646,24.0038206 C124.927448,24.5255698 124.818297,25.0453366 124.58388,25.5122299 C124.303441,25.9150791 123.901864,26.218023 123.437489,26.3770512 L123.065415,25.6731269 Z" id="Shape"></path>
                </g>
            </g>
        </g>
    </g>
</svg>