<?xml version="1.0" encoding="utf-8"?>
<!-- Generator: Adobe Illustrator 25.4.1, SVG Export Plug-In . SVG Version: 6.00 Build 0)  -->
<svg version="1.1" id="Layer_1" xmlns="http://www.w3.org/2000/svg" xmlns:xlink="http://www.w3.org/1999/xlink" x="0px" y="0px"
	 viewBox="0 0 446.4 90.9" style="enable-background:new 0 0 446.4 90.9;" xml:space="preserve">
<style type="text/css">
	.st0{fill:#888888;}
</style>
<path d="M106.2,73.4V17.7H85.5v-7.4h49.6v7.4h-20.7v55.7H106.2z"/>
<path d="M149.9,72.3c-0.5-2.2-0.8-4.5-0.9-6.8c-2.2,5.1-7,7.8-13.9,7.8c-9,0-14.5-5.3-14.5-13c0-8.9,7.4-14.9,20.4-14.9h7.5v-5.3
	c0-4.7-2.9-7.1-8.5-7.1c-5.4,0-8.6,2.8-8.8,7.4h-7.7v-0.7c0-7.6,5.6-11.8,15.9-11.8c12.3,0,17.1,4.3,17.1,13.5v26.7
	c0,1.4,0.2,2.8,0.4,4.1H149.9z M141.9,50.9c-8.7,0-13,3.5-13,8.7c0,4.1,3.4,7.3,8.2,7.3c7.4,0,11.6-4,11.6-11.7v-4.3L141.9,50.9z"/>
<path d="M169.4,59.3v0.2c0,4.8,3.6,7.8,9.1,7.8s9.1-2.8,9.1-6.8c0-3-1.6-4.8-5.2-5.7l-9.2-2.2c-7.7-1.8-11.5-5.5-11.5-11.3
	c0-7.6,6.6-13.3,17.5-13.3c9.8,0,15.7,4.4,15.7,11.4c0,0.4,0,0.9-0.1,1.3h-7.9v-0.3c0-4.2-3.2-6.7-8.3-6.7S170,36.6,170,40
	c0,2.8,1.9,4.4,6.4,5.6l9.8,2.7c6.7,1.8,10,5.5,10,11.7c0,8-6.5,13.4-17.3,13.4c-12,0-17.5-4-17.5-13v-1L169.4,59.3z"/>
<path d="M207.4,59.3v0.2c0,4.8,3.6,7.8,9.1,7.8s9.1-2.8,9.1-6.8c0-3-1.6-4.8-5.2-5.7l-9.2-2.2c-7.7-1.8-11.5-5.5-11.5-11.3
	c0-7.6,6.6-13.3,17.5-13.3c9.8,0,15.7,4.4,15.7,11.4c0,0.4,0,0.9-0.1,1.3h-7.9v-0.3c0-4.2-3.2-6.7-8.3-6.7S208,36.6,208,40
	c0,2.8,1.9,4.4,6.4,5.6l9.8,2.7c6.7,1.8,10,5.5,10,11.7c0,8-6.5,13.4-17.3,13.4c-12,0-17.5-4-17.5-13v-1L207.4,59.3z"/>
<path d="M266.6,72.3c-0.5-2.2-0.8-4.5-0.9-6.8c-2.1,5.1-7,7.8-13.9,7.8c-9,0-14.5-5.3-14.5-13c0-8.9,7.4-14.9,20.4-14.9h7.5v-5.3
	c0-4.7-2.8-7.1-8.5-7.1c-5.4,0-8.6,2.8-8.8,7.4h-7.7v-0.7c0-7.6,5.6-11.8,16-11.8c12.3,0,17,4.3,17,13.4v26.8c0,1.4,0.2,2.8,0.4,4.1
	H266.6z M258.6,50.9c-8.7,0-13,3.5-13,8.7c0,4.1,3.4,7.3,8.2,7.3c7.4,0,11.5-4,11.5-11.7v-4.3L258.6,50.9z"/>
<path d="M282.8,29.1v-8.9l7.9-2.7v11.6h9.7v5.7h-9.6v26.6c0,4.3,0.9,5.5,5.5,5.5c1.4,0,2.7-0.2,4-0.6v6c-2,0.6-4.2,0.9-6.3,1
	c-7.8,0-11.1-2.2-11.1-9.1V34.8h-7.3v-5.7H282.8z"/>
<path d="M58.2,73.4L58.2,73.4c4.7-2.2,4.2-10.3-1.2-17.9L32.6,20.7C27.9,23,28.4,31,33.7,38.6L58.2,73.4z"/>
<path class="st0" d="M38.6,73.4L38.6,73.4c-4.7-2.2-4.2-10.3,1.1-17.9l24.4-34.8C68.9,23,68.4,31,63,38.6L38.6,73.4z"/>
<path class="st0" d="M51.7,3.2L51.7,3.2C48.2,1.5,44,2.7,41.9,6l-9.3,14.7c3.5,1.7,7.7,0.6,9.8-2.7L51.7,3.2z"/>
<path d="M45,3.2L45,3.2c3.5-1.7,7.7-0.5,9.8,2.8l9.4,14.7c-3.5,1.7-7.7,0.5-9.8-2.7L45,3.2z"/>
<path d="M15.7,73c0.9,0.2,1.7,0.4,2.6,0.4h20.2c0-5.1-3.7-8-8.2-8H10.6L15.7,73z"/>
<path class="st0" d="M24.1,33L9.4,53.8C8,55.7,7.3,58,7.4,60.4l3.3,5l14.7-20.8C28.5,40.1,28,34.9,24.1,33z"/>
<path class="st0" d="M81,73c-0.9,0.2-1.7,0.4-2.6,0.4H58.1c0-5.1,3.7-8,8.2-8h19.7L81,73z"/>
<path d="M72.6,33l14.6,20.8c1.4,1.9,2.1,4.2,2.1,6.6l-3.3,5L71.4,44.6C68.2,40.1,68.8,34.9,72.6,33z"/>
<path d="M308.5,9.8h22c13.7,0,20.6,5.8,20.6,17.4c0,6.4-2,11-6.1,13.9c-4.1,2.8-10.3,4.2-18.6,4.2h-9.5v27.7h-8.4V9.8z M329.1,37.3
	c4.5,0,7.8-0.7,9.9-2.2s3.1-4.1,3.1-7.8s-1-6.5-3.1-8s-5.4-2.3-9.9-2.3h-12.2v20.3H329.1z"/>
<path d="M405.5,71.8l-18-44h8.2l14,34.9L424,27.9h8l-25.7,60.7h-7.5L405.5,71.8z"/>
<path d="M379.1,72.3c-0.5-2.2-0.8-4.5-0.9-6.8c-2.1,5.1-7,7.8-13.9,7.8c-9,0-14.5-5.3-14.5-13c0-8.9,7.4-14.9,20.4-14.9h7.5v-5.3
	c0-4.7-2.8-7.1-8.5-7.1c-5.4,0-8.6,2.8-8.8,7.4h-7.7v-0.7c0-7.6,5.6-11.8,16-11.8c12.3,0,17,4.3,17,13.4v26.8c0,1.4,0.2,2.8,0.4,4.1
	H379.1z M371.1,50.9c-8.7,0-13,3.5-13,8.7c0,4.1,3.4,7.3,8.2,7.3c7.4,0,11.5-4,11.5-11.7v-4.3L371.1,50.9z"/>
</svg>
