<?xml version="1.0" encoding="utf-8"?>
<!-- Generator: Adobe Illustrator 25.4.1, SVG Export Plug-In . SVG Version: 6.00 Build 0)  -->
<svg version="1.1" id="Layer_1" xmlns="http://www.w3.org/2000/svg" xmlns:xlink="http://www.w3.org/1999/xlink" x="0px" y="0px"
	 viewBox="0 0 431 86.8" style="enable-background:new 0 0 431 86.8;" xml:space="preserve">
<style type="text/css">
	.st0{fill:#FFFFFF;}
	.st1{opacity:0.6;fill:#FFFFFF;enable-background:new    ;}
</style>
<g>
	<path class="st0" d="M99,71.1V15.4H78.3V8h49.6v7.4h-20.7v55.7H99z"/>
	<path class="st0" d="M142.7,70c-0.5-2.2-0.8-4.5-0.9-6.8c-2.2,5.1-7,7.8-13.9,7.8c-9,0-14.5-5.3-14.5-13c0-8.9,7.4-14.9,20.4-14.9
		h7.5v-5.3c0-4.7-2.9-7.1-8.5-7.1c-5.4,0-8.6,2.8-8.8,7.4h-7.7v-0.7c0-7.6,5.6-11.8,15.9-11.8c12.3,0,17.1,4.3,17.1,13.5v26.7
		c0,1.4,0.2,2.8,0.4,4.1L142.7,70L142.7,70z M134.7,48.6c-8.7,0-13,3.5-13,8.7c0,4.1,3.4,7.3,8.2,7.3c7.4,0,11.6-4,11.6-11.7v-4.3
		H134.7z"/>
	<path class="st0" d="M162.2,57v0.2c0,4.8,3.6,7.8,9.1,7.8s9.1-2.8,9.1-6.8c0-3-1.6-4.8-5.2-5.7l-9.2-2.2
		c-7.7-1.8-11.5-5.5-11.5-11.3c0-7.6,6.6-13.3,17.5-13.3c9.8,0,15.7,4.4,15.7,11.4c0,0.4,0,0.9-0.1,1.3h-7.9v-0.3
		c0-4.2-3.2-6.7-8.3-6.7s-8.6,2.9-8.6,6.3c0,2.8,1.9,4.4,6.4,5.6L179,46c6.7,1.8,10,5.5,10,11.7c0,8-6.5,13.4-17.3,13.4
		c-12,0-17.5-4-17.5-13v-1L162.2,57z"/>
	<path class="st0" d="M200.2,57v0.2c0,4.8,3.6,7.8,9.1,7.8s9.1-2.8,9.1-6.8c0-3-1.6-4.8-5.2-5.7l-9.2-2.2
		c-7.7-1.8-11.5-5.5-11.5-11.3c0-7.6,6.6-13.3,17.5-13.3c9.8,0,15.7,4.4,15.7,11.4c0,0.4,0,0.9-0.1,1.3h-7.9v-0.3
		c0-4.2-3.2-6.7-8.3-6.7s-8.6,2.9-8.6,6.3c0,2.8,1.9,4.4,6.4,5.6L217,46c6.7,1.8,10,5.5,10,11.7c0,8-6.5,13.4-17.3,13.4
		c-12,0-17.5-4-17.5-13v-1L200.2,57z"/>
	<path class="st0" d="M259.4,70c-0.5-2.2-0.8-4.5-0.9-6.8c-2.1,5.1-7,7.8-13.9,7.8c-9,0-14.5-5.3-14.5-13c0-8.9,7.4-14.9,20.4-14.9
		h7.5v-5.3c0-4.7-2.8-7.1-8.5-7.1c-5.4,0-8.6,2.8-8.8,7.4H233v-0.7c0-7.6,5.6-11.8,16-11.8c12.3,0,17,4.3,17,13.4v26.8
		c0,1.4,0.2,2.8,0.4,4.1L259.4,70L259.4,70z M251.4,48.6c-8.7,0-13,3.5-13,8.7c0,4.1,3.4,7.3,8.2,7.3c7.4,0,11.5-4,11.5-11.7v-4.3
		H251.4z"/>
	<path class="st0" d="M275.6,26.8v-8.9l7.9-2.7v11.6h9.7v5.7h-9.6v26.6c0,4.3,0.9,5.5,5.5,5.5c1.4,0,2.7-0.2,4-0.6v6
		c-2,0.6-4.2,0.9-6.3,1c-7.8,0-11.1-2.2-11.1-9.1V32.5h-7.3v-5.7C268.4,26.8,275.6,26.8,275.6,26.8z"/>
	<path class="st0" d="M301.3,7.5h22c13.7,0,20.6,5.8,20.6,17.4c0,6.4-2,11-6.1,13.9c-4.1,2.8-10.3,4.2-18.6,4.2h-9.5v27.7h-8.4V7.5z
		 M321.9,35c4.5,0,7.8-0.7,9.9-2.2s3.1-4.1,3.1-7.8s-1-6.5-3.1-8s-5.4-2.3-9.9-2.3h-12.2V35H321.9z"/>
	<path class="st0" d="M398.3,69.5l-18-44h8.2l14,34.9l14.3-34.8h8l-25.7,60.7h-7.5L398.3,69.5z"/>
	<path class="st0" d="M371.9,70c-0.5-2.2-0.8-4.5-0.9-6.8c-2.1,5.1-7,7.8-13.9,7.8c-9,0-14.5-5.3-14.5-13c0-8.9,7.4-14.9,20.4-14.9
		h7.5v-5.3c0-4.7-2.8-7.1-8.5-7.1c-5.4,0-8.6,2.8-8.8,7.4h-7.7v-0.7c0-7.6,5.6-11.8,16-11.8c12.3,0,17,4.3,17,13.4v26.8
		c0,1.4,0.2,2.8,0.4,4.1L371.9,70L371.9,70z M363.9,48.6c-8.7,0-13,3.5-13,8.7c0,4.1,3.4,7.3,8.2,7.3c7.4,0,11.5-4,11.5-11.7v-4.3
		H363.9z"/>
</g>
<g id="Layer_2_00000168080996849005903970000013698870700910329739_">
	<g id="Layer_1-2">
		<path class="st1" d="M50.9,71.1L50.9,71.1c4.7-2.2,4.2-10.3-1.1-17.9L25.3,18.5c-4.7,2.2-4.2,10.2,1.1,17.9L50.9,71.1z"/>
		<path class="st0" d="M31.3,71.1L31.3,71.1c-4.7-2.2-4.2-10.2,1.1-17.9l24.4-34.8c4.7,2.2,4.2,10.2-1.1,17.9L31.3,71.1z"/>
		<path class="st0" d="M44.4,1L44.4,1c-3.5-1.7-7.7-0.6-9.8,2.7l-9.3,14.8c3.5,1.7,7.7,0.6,9.8-2.7L44.4,1z"/>
		<path class="st1" d="M37.7,1L37.7,1c3.5-1.7,7.7-0.6,9.8,2.7l9.3,14.8c-3.5,1.7-7.7,0.5-9.8-2.7L37.7,1z"/>
		<path class="st1" d="M8.4,70.8c0.8,0.2,1.7,0.4,2.6,0.4h20.2c0-5.1-3.7-8-8.2-8H3.4L8.4,70.8z"/>
		<path class="st0" d="M16.8,30.8L2.2,51.5c-1.4,1.9-2.2,4.2-2.1,6.6l3.3,5l14.7-20.8C21.2,37.8,20.7,32.6,16.8,30.8z"/>
		<path class="st0" d="M73.7,70.8c-0.9,0.2-1.7,0.4-2.6,0.4H50.9c0-5.1,3.7-8,8.2-8h19.7L73.7,70.8z"/>
		<path class="st1" d="M65.4,30.8L80,51.6c1.4,1.9,2.1,4.2,2.1,6.6l-3.3,5L64.1,42.4C60.9,37.8,61.5,32.6,65.4,30.8z"/>
	</g>
</g>
</svg>
