<svg xmlns="http://www.w3.org/2000/svg" viewBox="0 0 424.67 86.02"><defs><style>.cls-1,.cls-2{fill:#003d71;}.cls-2{isolation:isolate;opacity:0.6;}</style></defs><g id="Layer_2" data-name="Layer 2"><g id="Layer_1-2" data-name="Layer 1"><path class="cls-1" d="M98.87,70.82V15.12H78.17V7.72h49.6v7.4h-20.7v55.7Z"/><path class="cls-1" d="M142.57,69.72a38.36,38.36,0,0,1-.9-6.8c-2.2,5.1-7,7.8-13.9,7.8-9,0-14.5-5.3-14.5-13,0-8.9,7.4-14.9,20.4-14.9h7.5v-5.3c0-4.7-2.9-7.1-8.5-7.1-5.4,0-8.6,2.8-8.8,7.4h-7.7v-.7c0-7.6,5.6-11.8,15.9-11.8,12.3,0,17.1,4.3,17.1,13.5v26.7a27.13,27.13,0,0,0,.4,4.1h-7Zm-8-21.4c-8.7,0-13,3.5-13,8.7,0,4.1,3.4,7.3,8.2,7.3,7.4,0,11.6-4,11.6-11.7v-4.3Z"/><path class="cls-1" d="M162.07,56.72v.2c0,4.8,3.6,7.8,9.1,7.8s9.1-2.8,9.1-6.8c0-3-1.6-4.8-5.2-5.7l-9.2-2.2c-7.7-1.8-11.5-5.5-11.5-11.3,0-7.6,6.6-13.3,17.5-13.3,9.8,0,15.7,4.4,15.7,11.4a5.7,5.7,0,0,1-.1,1.3h-7.9v-.3c0-4.2-3.2-6.7-8.3-6.7s-8.6,2.9-8.6,6.3c0,2.8,1.9,4.4,6.4,5.6l9.8,2.7c6.7,1.8,10,5.5,10,11.7,0,8-6.5,13.4-17.3,13.4-12,0-17.5-4-17.5-13v-1Z"/><path class="cls-1" d="M200.07,56.72v.2c0,4.8,3.6,7.8,9.1,7.8s9.1-2.8,9.1-6.8c0-3-1.6-4.8-5.2-5.7l-9.2-2.2c-7.7-1.8-11.5-5.5-11.5-11.3,0-7.6,6.6-13.3,17.5-13.3,9.8,0,15.7,4.4,15.7,11.4a5.7,5.7,0,0,1-.1,1.3h-7.9v-.3c0-4.2-3.2-6.7-8.3-6.7s-8.6,2.9-8.6,6.3c0,2.8,1.9,4.4,6.4,5.6l9.8,2.7c6.7,1.8,10,5.5,10,11.7,0,8-6.5,13.4-17.3,13.4-12,0-17.5-4-17.5-13v-1Z"/><path class="cls-1" d="M259.27,69.72a38.36,38.36,0,0,1-.9-6.8c-2.1,5.1-7,7.8-13.9,7.8-9,0-14.5-5.3-14.5-13,0-8.9,7.4-14.9,20.4-14.9h7.5v-5.3c0-4.7-2.8-7.1-8.5-7.1-5.4,0-8.6,2.8-8.8,7.4h-7.7v-.7c0-7.6,5.6-11.8,16-11.8,12.3,0,17,4.3,17,13.4v26.8a27.13,27.13,0,0,0,.4,4.1h-7Zm-8-21.4c-8.7,0-13,3.5-13,8.7,0,4.1,3.4,7.3,8.2,7.3,7.4,0,11.5-4,11.5-11.7v-4.3Z"/><path class="cls-1" d="M275.47,26.52v-8.9l7.9-2.7v11.6h9.7v5.7h-9.6v26.6c0,4.3.9,5.5,5.5,5.5a13.36,13.36,0,0,0,4-.6v6a26.72,26.72,0,0,1-6.3,1c-7.8,0-11.1-2.2-11.1-9.1V32.22h-7.3v-5.7Z"/><path class="cls-1" d="M301.17,7.22h22c13.7,0,20.6,5.8,20.6,17.4,0,6.4-2,11-6.1,13.9s-10.3,4.2-18.6,4.2h-9.5v27.7h-8.4Zm20.6,27.5c4.5,0,7.8-.7,9.9-2.2s3.1-4.1,3.1-7.8-1-6.5-3.1-8-5.4-2.3-9.9-2.3h-12.2v20.3Z"/><path class="cls-1" d="M398.17,69.22l-18-44h8.2l14,34.9,14.3-34.8h8L399,86h-7.5Z"/><path class="cls-1" d="M371.77,69.72a38.36,38.36,0,0,1-.9-6.8c-2.1,5.1-7,7.8-13.9,7.8-9,0-14.5-5.3-14.5-13,0-8.9,7.4-14.9,20.4-14.9h7.5v-5.3c0-4.7-2.8-7.1-8.5-7.1-5.4,0-8.6,2.8-8.8,7.4h-7.7v-.7c0-7.6,5.6-11.8,16-11.8,12.3,0,17,4.3,17,13.4v26.8a27.13,27.13,0,0,0,.4,4.1h-7Zm-8-21.4c-8.7,0-13,3.5-13,8.7,0,4.1,3.4,7.3,8.2,7.3,7.4,0,11.5-4,11.5-11.7v-4.3Z"/><g id="Layer_2-2" data-name="Layer 2"><g id="Layer_1-2-2" data-name="Layer 1-2"><path class="cls-2" d="M50.81,70.9h0c4.7-2.2,4.2-10.3-1.1-17.9L25.21,18.3c-4.7,2.2-4.2,10.2,1.1,17.9Z"/><path class="cls-1" d="M31.21,70.9h0c-4.7-2.2-4.2-10.2,1.1-17.9l24.4-34.8c4.7,2.2,4.2,10.2-1.1,17.9Z"/><path class="cls-1" d="M44.31.8h0a7.62,7.62,0,0,0-9.8,2.7l-9.3,14.8A7.61,7.61,0,0,0,35,15.6Z"/><path class="cls-2" d="M37.61.8h0a7.61,7.61,0,0,1,9.8,2.7l9.3,14.8a7.71,7.71,0,0,1-9.8-2.7Z"/><path class="cls-2" d="M8.31,70.6a11.53,11.53,0,0,0,2.6.4h20.2c0-5.1-3.7-8-8.2-8H3.31Z"/><path class="cls-1" d="M16.71,30.6,2.11,51.3A10.46,10.46,0,0,0,0,57.9l3.3,5L18,42.1C21.11,37.6,20.61,32.4,16.71,30.6Z"/><path class="cls-1" d="M73.61,70.6A11.46,11.46,0,0,1,71,71H50.81c0-5.1,3.7-8,8.2-8h19.7Z"/><path class="cls-2" d="M65.31,30.6l14.6,20.8A10.9,10.9,0,0,1,82,58l-3.3,5L64,42.2C60.81,37.6,61.41,32.4,65.31,30.6Z"/></g></g></g></g></svg>