<svg xmlns="http://www.w3.org/2000/svg" viewBox="0 0 346.5 78.8"><g id="Layer_2" data-name="Layer 2"><g id="Layer_1-2" data-name="Layer 1"><path d="M20.7,63.6V7.9H0V.5H49.6V7.9H28.9V63.6Z"/><path d="M64.4,62.5a38.36,38.36,0,0,1-.9-6.8c-2.2,5.1-7,7.8-13.9,7.8-9,0-14.5-5.3-14.5-13,0-8.9,7.4-14.9,20.4-14.9H63V30.3c0-4.7-2.9-7.1-8.5-7.1-5.4,0-8.6,2.8-8.8,7.4H38v-.7c0-7.6,5.6-11.8,15.9-11.8C66.2,18.1,71,22.4,71,31.6V58.3a27.13,27.13,0,0,0,.4,4.1h-7Zm-8-21.4c-8.7,0-13,3.5-13,8.7,0,4.1,3.4,7.3,8.2,7.3,7.4,0,11.6-4,11.6-11.7V41.1Z"/><path d="M83.9,49.5v.2c0,4.8,3.6,7.8,9.1,7.8s9.1-2.8,9.1-6.8c0-3-1.6-4.8-5.2-5.7l-9.2-2.2C80,41,76.2,37.3,76.2,31.5c0-7.6,6.6-13.3,17.5-13.3,9.8,0,15.7,4.4,15.7,11.4a5.7,5.7,0,0,1-.1,1.3h-7.9v-.3c0-4.2-3.2-6.7-8.3-6.7s-8.6,2.9-8.6,6.3c0,2.8,1.9,4.4,6.4,5.6l9.8,2.7c6.7,1.8,10,5.5,10,11.7,0,8-6.5,13.4-17.3,13.4-12,0-17.5-4-17.5-13v-1Z"/><path d="M121.9,49.5v.2c0,4.8,3.6,7.8,9.1,7.8s9.1-2.8,9.1-6.8c0-3-1.6-4.8-5.2-5.7l-9.2-2.2c-7.7-1.8-11.5-5.5-11.5-11.3,0-7.6,6.6-13.3,17.5-13.3,9.8,0,15.7,4.4,15.7,11.4a5.7,5.7,0,0,1-.1,1.3h-7.9v-.3c0-4.2-3.2-6.7-8.3-6.7s-8.6,2.9-8.6,6.3c0,2.8,1.9,4.4,6.4,5.6l9.8,2.7c6.7,1.8,10,5.5,10,11.7,0,8-6.5,13.4-17.3,13.4-12,0-17.5-4-17.5-13v-1Z"/><path d="M181.1,62.5a38.36,38.36,0,0,1-.9-6.8c-2.1,5.1-7,7.8-13.9,7.8-9,0-14.5-5.3-14.5-13,0-8.9,7.4-14.9,20.4-14.9h7.5V30.3c0-4.7-2.8-7.1-8.5-7.1-5.4,0-8.6,2.8-8.8,7.4h-7.7v-.7c0-7.6,5.6-11.8,16-11.8,12.3,0,17,4.3,17,13.4V58.3a27.13,27.13,0,0,0,.4,4.1h-7Zm-8-21.4c-8.7,0-13,3.5-13,8.7,0,4.1,3.4,7.3,8.2,7.3,7.4,0,11.5-4,11.5-11.7V41.1Z"/><path d="M197.3,19.3V10.4l7.9-2.7V19.3h9.7V25h-9.6V51.6c0,4.3.9,5.5,5.5,5.5a13.36,13.36,0,0,0,4-.6v6a26.72,26.72,0,0,1-6.3,1c-7.8,0-11.1-2.2-11.1-9.1V25h-7.3V19.3Z"/><path d="M223,0h22c13.7,0,20.6,5.8,20.6,17.4,0,6.4-2,11-6.1,13.9s-10.3,4.2-18.6,4.2h-9.5V63.2H223Zm20.6,27.5c4.5,0,7.8-.7,9.9-2.2s3.1-4.1,3.1-7.8-1-6.5-3.1-8-5.4-2.3-9.9-2.3H231.4V27.5Z"/><path d="M320,62,302,18h8.2l14,34.9,14.3-34.8h8L320.8,78.8h-7.5Z"/><path d="M293.6,62.5a38.36,38.36,0,0,1-.9-6.8c-2.1,5.1-7,7.8-13.9,7.8-9,0-14.5-5.3-14.5-13,0-8.9,7.4-14.9,20.4-14.9h7.5V30.3c0-4.7-2.8-7.1-8.5-7.1-5.4,0-8.6,2.8-8.8,7.4h-7.7v-.7c0-7.6,5.6-11.8,16-11.8,12.3,0,17,4.3,17,13.4V58.3a27.13,27.13,0,0,0,.4,4.1h-7Zm-8-21.4c-8.7,0-13,3.5-13,8.7,0,4.1,3.4,7.3,8.2,7.3,7.4,0,11.5-4,11.5-11.7V41.1Z"/></g></g></svg>