<svg xmlns="http://www.w3.org/2000/svg" viewBox="0 0 346.46 78.75"><defs><style>.cls-1{fill:#00427a;}</style></defs><g id="Layer_2" data-name="Layer 2"><g id="Layer_1-2" data-name="Layer 1"><path class="cls-1" d="M20.61,63.64V7.93H0V.52H49.58V7.93H28.89V63.64Z"/><path class="cls-1" d="M64.32,62.6a38.1,38.1,0,0,1-.86-6.81c-2.16,5.09-7,7.85-13.89,7.85-9,0-14.48-5.35-14.48-13,0-8.94,7.41-14.94,20.43-14.94H63V30.44c0-4.66-2.85-7.07-8.54-7.07-5.35,0-8.62,2.76-8.8,7.41H38v-.69C38,22.51,43.63,18.28,54,18.28c12.33,0,17.08,4.31,17.08,13.45V58.46a28.77,28.77,0,0,0,.43,4.14Zm-8-21.47c-8.71,0-13,3.54-13,8.71,0,4.14,3.36,7.33,8.19,7.33,7.42,0,11.56-4,11.56-11.73V41.13Z"/><path class="cls-1" d="M83.83,49.58v.17c0,4.75,3.62,7.85,9.14,7.85s9-2.84,9-6.81c0-3-1.64-4.83-5.17-5.69l-9.23-2.16C80,41.13,76.16,37.42,76.16,31.65c0-7.59,6.63-13.28,17.5-13.28,9.83,0,15.69,4.4,15.69,11.38a8,8,0,0,1-.08,1.29h-7.94V30.7c0-4.23-3.19-6.73-8.27-6.73s-8.6,2.85-8.6,6.28c0,2.84,1.9,4.39,6.38,5.6l9.83,2.67c6.73,1.82,10,5.52,10,11.65,0,8-6.47,13.45-17.34,13.45-12,0-17.5-4-17.5-13v-1Z"/><path class="cls-1" d="M121.83,49.58v.17c0,4.75,3.62,7.85,9.14,7.85S140,54.76,140,50.79c0-3-1.64-4.83-5.18-5.69l-9.22-2.16c-7.68-1.81-11.47-5.52-11.47-11.29,0-7.59,6.64-13.28,17.5-13.28,9.83,0,15.69,4.4,15.69,11.38a8,8,0,0,1-.08,1.29h-7.93V30.7c0-4.23-3.19-6.73-8.28-6.73s-8.6,2.85-8.6,6.28c0,2.84,1.89,4.39,6.38,5.6l9.83,2.67c6.72,1.82,10,5.52,10,11.65,0,8-6.47,13.45-17.33,13.45-12,0-17.51-4-17.51-13v-1Z"/><path class="cls-1" d="M181.09,62.6a37.23,37.23,0,0,1-.87-6.81c-2.15,5.09-7,7.85-13.88,7.85-9,0-14.48-5.35-14.48-13,0-8.94,7.41-14.94,20.43-14.94h7.54V30.44c0-4.66-2.84-7.07-8.53-7.07-5.35,0-8.63,2.76-8.8,7.41h-7.67v-.69c0-7.58,5.6-11.81,15.95-11.81,12.29,0,17.05,4.31,17.05,13.42V58.46a30.26,30.26,0,0,0,.43,4.14Zm-8-21.47c-8.71,0-13,3.54-13,8.71,0,4.14,3.36,7.33,8.19,7.33,7.41,0,11.55-4,11.55-11.73V41.13Z"/><path class="cls-1" d="M197.23,19.32V10.44l7.94-2.68V19.32h9.66V25h-9.65V51.56c0,4.32.94,5.52,5.51,5.52a15.07,15.07,0,0,0,4-.6v6a25.33,25.33,0,0,1-6.29,1c-7.76,0-11.13-2.24-11.13-9.14V25h-7.33V19.32Z"/><path class="cls-1" d="M222.92,0h22q20.6,0,20.59,17.35,0,9.65-6.13,13.85T240.8,35.4h-9.47V63.1h-8.41Zm20.6,27.6c4.49,0,7.8-.74,9.9-2.23s3.15-4.1,3.15-7.84-1-6.53-3.11-8-5.39-2.28-9.94-2.28H231.33V27.6Z"/><path class="cls-1" d="M320,62.1l-18-44h8.23l14,34.88L338.46,18.1h8L320.74,78.75H313.2Z"/><path class="cls-1" d="M293.59,62.6a37.23,37.23,0,0,1-.87-6.81c-2.15,5.09-7,7.85-13.88,7.85-9,0-14.48-5.35-14.48-13,0-8.94,7.41-14.94,20.43-14.94h7.54V30.44c0-4.66-2.84-7.07-8.53-7.07-5.35,0-8.63,2.76-8.8,7.41h-7.67v-.69c0-7.58,5.6-11.81,15.95-11.81,12.29,0,17.05,4.31,17.05,13.42V58.46a30.26,30.26,0,0,0,.43,4.14Zm-8-21.47c-8.71,0-13,3.54-13,8.71,0,4.14,3.36,7.33,8.19,7.33,7.41,0,11.55-4,11.55-11.73V41.13Z"/></g></g></svg>