<svg xmlns="http://www.w3.org/2000/svg" viewBox="0 0 424.8 86.25"><defs><style>.cls-1{fill:#999;}.cls-2{fill:#e6e6e6;}.cls-3{fill:#c4c4c4;}.cls-4{fill:#fff;}</style></defs><g id="Layer_2" data-name="Layer 2"><g id="Layer_1-2" data-name="Layer 1"><path class="cls-1" d="M50.79,70.93h0C55.53,68.68,55,60.67,49.66,53L25.23,18.25C20.5,20.49,21,28.5,26.36,36.14Z"/><path class="cls-2" d="M31.21,70.93h0C26.48,68.68,27,60.67,32.35,53L56.78,18.25C61.51,20.49,61,28.5,55.64,36.14Z"/><path class="cls-3" d="M44.34.79h0a7.63,7.63,0,0,0-9.8,2.7L25.2,18.24A7.65,7.65,0,0,0,35,15.55Z"/><path class="cls-1" d="M37.65.79h0a7.64,7.64,0,0,1,9.79,2.7l9.35,14.75A7.64,7.64,0,0,1,47,15.55Z"/><path class="cls-3" d="M8.34,70.57a9.7,9.7,0,0,0,2.63.36H31.2c0-5.06-3.71-8-8.19-8H3.27Z"/><path class="cls-2" d="M16.7,30.56,2.09,51.33A10.29,10.29,0,0,0,0,57.92l3.26,5L17.94,42.15C21.15,37.6,20.59,32.41,16.7,30.56Z"/><path class="cls-2" d="M73.64,70.57a9.76,9.76,0,0,1-2.63.36H50.78c0-5.06,3.7-8,8.19-8H78.71Z"/><path class="cls-3" d="M65.28,30.56,79.89,51.33A10.34,10.34,0,0,1,82,57.92l-3.26,5L64,42.15C60.83,37.6,61.39,32.41,65.28,30.56Z"/><path class="cls-4" d="M99,71.05V15.35H78.3V8h49.6v7.4H107.2v55.7Z"/><path class="cls-4" d="M142.7,70a38.36,38.36,0,0,1-.9-6.8c-2.2,5.1-7,7.8-13.9,7.8-9,0-14.5-5.3-14.5-13,0-8.9,7.4-14.9,20.4-14.9h7.5v-5.3c0-4.7-2.9-7.1-8.5-7.1-5.4,0-8.6,2.8-8.8,7.4h-7.7v-.7c0-7.6,5.6-11.8,15.9-11.8,12.3,0,17.1,4.3,17.1,13.5v26.7a27.13,27.13,0,0,0,.4,4.1h-7Zm-8-21.4c-8.7,0-13,3.5-13,8.7,0,4.1,3.4,7.3,8.2,7.3,7.4,0,11.6-4,11.6-11.7v-4.3Z"/><path class="cls-4" d="M162.2,57v.2c0,4.8,3.6,7.8,9.1,7.8s9.1-2.8,9.1-6.8c0-3-1.6-4.8-5.2-5.7l-9.2-2.2c-7.7-1.8-11.5-5.5-11.5-11.3,0-7.6,6.6-13.3,17.5-13.3,9.8,0,15.7,4.4,15.7,11.4a5.7,5.7,0,0,1-.1,1.3h-7.9v-.3c0-4.2-3.2-6.7-8.3-6.7s-8.6,2.9-8.6,6.3c0,2.8,1.9,4.4,6.4,5.6L179,46c6.7,1.8,10,5.5,10,11.7,0,8-6.5,13.4-17.3,13.4-12,0-17.5-4-17.5-13v-1Z"/><path class="cls-4" d="M200.2,57v.2c0,4.8,3.6,7.8,9.1,7.8s9.1-2.8,9.1-6.8c0-3-1.6-4.8-5.2-5.7l-9.2-2.2c-7.7-1.8-11.5-5.5-11.5-11.3,0-7.6,6.6-13.3,17.5-13.3,9.8,0,15.7,4.4,15.7,11.4a5.7,5.7,0,0,1-.1,1.3h-7.9v-.3c0-4.2-3.2-6.7-8.3-6.7s-8.6,2.9-8.6,6.3c0,2.8,1.9,4.4,6.4,5.6L217,46c6.7,1.8,10,5.5,10,11.7,0,8-6.5,13.4-17.3,13.4-12,0-17.5-4-17.5-13v-1Z"/><path class="cls-4" d="M259.4,70a38.36,38.36,0,0,1-.9-6.8c-2.1,5.1-7,7.8-13.9,7.8-9,0-14.5-5.3-14.5-13,0-8.9,7.4-14.9,20.4-14.9H258v-5.3c0-4.7-2.8-7.1-8.5-7.1-5.4,0-8.6,2.8-8.8,7.4H233v-.7c0-7.6,5.6-11.8,16-11.8,12.3,0,17,4.3,17,13.4v26.8a27.13,27.13,0,0,0,.4,4.1h-7Zm-8-21.4c-8.7,0-13,3.5-13,8.7,0,4.1,3.4,7.3,8.2,7.3,7.4,0,11.5-4,11.5-11.7v-4.3Z"/><path class="cls-4" d="M275.6,26.75v-8.9l7.9-2.7v11.6h9.7v5.7h-9.6v26.6c0,4.3.9,5.5,5.5,5.5a13.36,13.36,0,0,0,4-.6v6a26.72,26.72,0,0,1-6.3,1c-7.8,0-11.1-2.2-11.1-9.1V32.45h-7.3v-5.7Z"/><path class="cls-4" d="M301.3,7.45h22c13.7,0,20.6,5.8,20.6,17.4,0,6.4-2,11-6.1,13.9S327.5,43,319.2,43h-9.5v27.7h-8.4ZM321.9,35c4.5,0,7.8-.7,9.9-2.2s3.1-4.1,3.1-7.8-1-6.5-3.1-8-5.4-2.3-9.9-2.3H309.7V35Z"/><path class="cls-4" d="M398.3,69.45l-18-44h8.2l14,34.9,14.3-34.8h8l-25.7,60.7h-7.5Z"/><path class="cls-4" d="M371.9,70a38.36,38.36,0,0,1-.9-6.8c-2.1,5.1-7,7.8-13.9,7.8-9,0-14.5-5.3-14.5-13,0-8.9,7.4-14.9,20.4-14.9h7.5v-5.3c0-4.7-2.8-7.1-8.5-7.1-5.4,0-8.6,2.8-8.8,7.4h-7.7v-.7c0-7.6,5.6-11.8,16-11.8,12.3,0,17,4.3,17,13.4v26.8a27.13,27.13,0,0,0,.4,4.1h-7Zm-8-21.4c-8.7,0-13,3.5-13,8.7,0,4.1,3.4,7.3,8.2,7.3,7.4,0,11.5-4,11.5-11.7v-4.3Z"/></g></g></svg>